<?xml version="1.0" encoding="UTF-8"?>
<!DOCTYPE svg PUBLIC "-//W3C//DTD SVG 1.1//EN" "http://www.w3.org/Graphics/SVG/1.1/DTD/svg11.dtd">
<svg xmlns="http://www.w3.org/2000/svg" version="1.1" width="516px" height="483px" style="shape-rendering:geometricPrecision; text-rendering:geometricPrecision; image-rendering:optimizeQuality; fill-rule:evenodd; clip-rule:evenodd" xmlns:xlink="http://www.w3.org/1999/xlink">
<g><path style="opacity:0.984" fill="#b4c189" d="M 365.5,8.5 C 349.307,4.73968 332.974,3.90635 316.5,6C 312.822,7.17443 309.156,8.3411 305.5,9.5C 313.248,4.2535 321.914,1.58684 331.5,1.5C 343.44,1.55387 354.774,3.8872 365.5,8.5 Z"/></g>
<g><path style="opacity:1" fill="#87c03f" d="M 311.5,12.5 C 315.919,12.9028 317.586,15.4028 316.5,20C 316.44,23.6035 315.274,26.7702 313,29.5C 309.633,34.3873 306.133,39.2207 302.5,44C 298.334,45.3341 295.334,44.1675 293.5,40.5C 292.664,29.6012 296.664,21.1012 305.5,15C 307.488,14.0617 309.488,13.2283 311.5,12.5 Z"/></g>
<g><path style="opacity:1" fill="#82a448" d="M 303.5,12.5 C 303.567,15.766 301.901,17.266 298.5,17C 296.419,20.7497 293.419,23.4164 289.5,25C 285.015,29.9899 280.681,35.1565 276.5,40.5C 272.883,42.0418 270.716,44.7085 270,48.5C 268.296,50.3734 266.463,52.0401 264.5,53.5C 273.693,36.3049 286.693,22.6382 303.5,12.5 Z"/></g>
<g><path style="opacity:0.196" fill="#6e6968" d="M 260.5,44.5 C 259.129,40.3454 257.962,36.0121 257,31.5C 253.634,26.391 249.134,25.2243 243.5,28C 242.197,31.1038 240.53,33.9371 238.5,36.5C 239.259,27.1109 244.259,23.6109 253.5,26C 255.667,26.8333 257.167,28.3333 258,30.5C 259.542,35.0445 260.376,39.7112 260.5,44.5 Z"/></g>
<g><path style="opacity:1" fill="#3a3936" d="M 260.5,44.5 C 260.833,45.1667 261.167,45.8333 261.5,46.5C 260.127,49.9677 259.127,53.6344 258.5,57.5C 257.21,58.0577 256.377,59.0577 256,60.5C 254.342,64.8082 252.842,69.1415 251.5,73.5C 250.85,73.8039 250.183,74.1373 249.5,74.5C 248.245,79.5365 248.412,84.5365 250,89.5C 251.129,91.1412 252.629,92.1412 254.5,92.5C 254.833,93.1667 255.167,93.8333 255.5,94.5C 255.5,95.1667 255.167,95.5 254.5,95.5C 253.319,93.9328 251.653,93.0995 249.5,93C 248.874,92.2496 248.374,91.4162 248,90.5C 246.807,82.0844 247.64,73.9177 250.5,66C 250.297,63.5941 249.297,61.5941 247.5,60C 249.871,58.1214 252.538,56.9547 255.5,56.5C 255.549,53.9009 256.549,51.7342 258.5,50C 256.679,47.8634 254.346,47.0301 251.5,47.5C 251.335,44.4816 251.502,41.4816 252,38.5C 253.487,37.7471 253.654,36.9138 252.5,36C 253.167,35.3333 253.833,34.6667 254.5,34C 252.19,33.5034 249.857,33.3367 247.5,33.5C 247.5,34.5 247.5,35.5 247.5,36.5C 246.5,36.5 245.5,36.5 244.5,36.5C 244.646,38.9424 243.813,39.6091 242,38.5C 241.833,39 241.667,39.5 241.5,40C 243.308,42.0406 243.974,44.2072 243.5,46.5C 241.681,47.3199 240.014,48.3199 238.5,49.5C 236.824,50.1834 236.157,51.5168 236.5,53.5C 235.833,53.5 235.5,53.1667 235.5,52.5C 235.956,46.9391 236.956,41.6058 238.5,36.5C 240.53,33.9371 242.197,31.1038 243.5,28C 249.134,25.2243 253.634,26.391 257,31.5C 257.962,36.0121 259.129,40.3454 260.5,44.5 Z"/></g>
<g><path style="opacity:1" fill="#6d9e2c" d="M 355.5,60.5 C 355.5,60.8333 355.5,61.1667 355.5,61.5C 353.983,61.5106 352.816,62.1772 352,63.5C 351.205,68.5544 348.538,72.2211 344,74.5C 343.209,75.745 342.709,77.0783 342.5,78.5C 339.622,80.7966 336.289,82.1299 332.5,82.5C 333.842,81.207 335.509,80.3736 337.5,80C 338.631,76.5313 340.631,73.698 343.5,71.5C 343.192,70.6919 342.692,70.0253 342,69.5C 340.644,70.3802 339.144,70.7135 337.5,70.5C 337.421,69.0695 337.754,67.7362 338.5,66.5C 342.55,65.3954 346.55,64.3954 350.5,63.5C 350.197,60.4124 351.53,58.7458 354.5,58.5C 353.965,50.8796 356.798,44.8796 363,40.5C 365.544,32.3646 366.711,24.0313 366.5,15.5C 365.127,15.3433 363.793,15.51 362.5,16C 363.696,16.6543 363.696,17.1543 362.5,17.5C 361.571,16.3112 361.238,14.9778 361.5,13.5C 359.435,13.5172 357.435,13.8505 355.5,14.5C 344.121,15.7346 334.121,20.0679 325.5,27.5C 323.61,27.7035 322.11,27.0368 321,25.5C 320.409,19.9372 319.909,14.6039 319.5,9.5C 316.212,9.01558 313.545,10.0156 311.5,12.5C 309.488,13.2283 307.488,14.0617 305.5,15C 296.664,21.1012 292.664,29.6012 293.5,40.5C 291.612,38.0122 290.945,35.0122 291.5,31.5C 289.473,31.3379 287.473,31.5045 285.5,32C 284.257,34.1156 283.091,36.2823 282,38.5C 281.667,38.1667 281.333,37.8333 281,37.5C 279.871,39.1412 278.371,40.1412 276.5,40.5C 280.681,35.1565 285.015,29.9899 289.5,25C 293.419,23.4164 296.419,20.7497 298.5,17C 301.901,17.266 303.567,15.766 303.5,12.5C 307.911,10.1927 312.578,8.35932 317.5,7C 333.326,5.92574 348.993,6.92574 364.5,10C 366.049,11.214 367.215,12.714 368,14.5C 369.131,28.9919 365.464,41.9919 357,53.5C 356.023,55.74 355.523,58.0733 355.5,60.5 Z"/></g>
<g><path style="opacity:0.325" fill="#a0b372" d="M 305.5,9.5 C 304.833,10.5 304.167,11.5 303.5,12.5C 286.693,22.6382 273.693,36.3049 264.5,53.5C 262.913,56.4277 260.913,59.0944 258.5,61.5C 258.5,60.1667 258.5,58.8333 258.5,57.5C 260.572,55.6505 261.905,53.3171 262.5,50.5C 273.944,33.7211 288.277,20.0545 305.5,9.5 Z"/></g>
<g><path style="opacity:1" fill="#31312f" d="M 254.5,95.5 C 250.731,95.756 247.064,95.4227 243.5,94.5C 241.377,91.5517 238.544,89.5517 235,88.5C 234.833,87.3333 234.667,86.1667 234.5,85C 235.112,82.859 235.112,80.859 234.5,79C 235.416,78.6258 236.25,78.1258 237,77.5C 238.064,73.5541 238.897,69.5541 239.5,65.5C 239.081,64.3279 238.415,63.3279 237.5,62.5C 238.311,61.7836 238.978,60.9503 239.5,60C 236.908,57.1468 236.908,54.3135 239.5,51.5C 239.137,50.8165 238.804,50.1499 238.5,49.5C 240.014,48.3199 241.681,47.3199 243.5,46.5C 243.974,44.2072 243.308,42.0406 241.5,40C 241.667,39.5 241.833,39 242,38.5C 243.813,39.6091 244.646,38.9424 244.5,36.5C 245.5,36.5 246.5,36.5 247.5,36.5C 247.5,35.5 247.5,34.5 247.5,33.5C 249.857,33.3367 252.19,33.5034 254.5,34C 253.833,34.6667 253.167,35.3333 252.5,36C 253.654,36.9138 253.487,37.7471 252,38.5C 251.502,41.4816 251.335,44.4816 251.5,47.5C 254.346,47.0301 256.679,47.8634 258.5,50C 256.549,51.7342 255.549,53.9009 255.5,56.5C 252.538,56.9547 249.871,58.1214 247.5,60C 249.297,61.5941 250.297,63.5941 250.5,66C 247.64,73.9177 246.807,82.0844 248,90.5C 248.374,91.4162 248.874,92.2496 249.5,93C 251.653,93.0995 253.319,93.9328 254.5,95.5 Z"/></g>
<g><path style="opacity:0.788" fill="#95ac60" d="M 365.5,8.5 C 367.934,9.77128 369.434,11.7713 370,14.5C 370.61,30.5067 366.443,45.1734 357.5,58.5C 357.167,59.5 356.5,60.1667 355.5,60.5C 355.523,58.0733 356.023,55.74 357,53.5C 365.464,41.9919 369.131,28.9919 368,14.5C 367.215,12.714 366.049,11.214 364.5,10C 348.993,6.92574 333.326,5.92574 317.5,7C 312.578,8.35932 307.911,10.1927 303.5,12.5C 304.167,11.5 304.833,10.5 305.5,9.5C 309.156,8.3411 312.822,7.17443 316.5,6C 332.974,3.90635 349.307,4.73968 365.5,8.5 Z"/></g>
<g><path style="opacity:1" fill="#6d734e" d="M 261.5,46.5 C 261.232,48.099 261.566,49.4324 262.5,50.5C 261.905,53.3171 260.572,55.6505 258.5,57.5C 259.127,53.6344 260.127,49.9677 261.5,46.5 Z"/></g>
<g><path style="opacity:0.251" fill="#e1a462" d="M 219.5,55.5 C 214.203,57.8743 208.537,58.8743 202.5,58.5C 207.959,57.0492 213.626,56.0492 219.5,55.5 Z"/></g>
<g><path style="opacity:1" fill="#fd8b1a" d="M 229.5,75.5 C 227.559,78.1968 226.059,81.1968 225,84.5C 224.797,88.4213 224.297,92.2546 223.5,96C 227.379,103.218 233.379,107.218 241.5,108C 249.403,108.709 257.236,108.209 265,106.5C 275.482,107.583 285.982,107.749 296.5,107C 299.603,106.396 302.27,105.063 304.5,103C 313.053,101.81 321.219,99.3096 329,95.5C 330.696,92.6336 333.196,91.3002 336.5,91.5C 336.281,90.325 336.614,89.325 337.5,88.5C 341.564,86.6103 345.73,84.9436 350,83.5C 352.167,82.1723 354,80.5056 355.5,78.5C 356.768,79.4279 358.101,79.5946 359.5,79C 361.699,74.7195 364.699,71.0528 368.5,68C 366.45,67.5838 365.116,66.4171 364.5,64.5C 374.945,69.222 385.278,74.222 395.5,79.5C 395.908,80.6431 396.575,81.6431 397.5,82.5C 402.202,85.5526 406.869,88.5526 411.5,91.5C 412.207,93.1344 413.373,94.4677 415,95.5C 415.333,96.8333 415.667,98.1667 416,99.5C 421.985,103.656 427.485,108.323 432.5,113.5C 431.803,115.071 431.47,116.571 431.5,118C 433.861,121.062 433.861,124.062 431.5,127C 433.354,128.523 434.854,130.356 436,132.5C 441.247,153.976 443.08,175.976 441.5,198.5C 441.393,202.088 440.393,205.255 438.5,208C 438.826,210.484 439.826,212.651 441.5,214.5C 439.945,224.135 438.445,233.801 437,243.5C 431.945,254.082 427.445,264.748 423.5,275.5C 423.768,273.901 423.434,272.568 422.5,271.5C 422.333,248.164 422.5,224.831 423,201.5C 424.016,202.634 424.683,202.301 425,200.5C 425.337,197.139 425.837,193.806 426.5,190.5C 426.281,188.085 424.948,187.085 422.5,187.5C 417.301,187.127 412.301,187.127 407.5,187.5C 406.307,187.97 405.64,188.97 405.5,190.5C 406.524,193.056 407.358,195.723 408,198.5C 408.5,232.165 408.667,265.832 408.5,299.5C 408.5,300.833 408.5,302.167 408.5,303.5C 406.636,304.978 405.303,306.978 404.5,309.5C 403.833,309.167 403.167,308.833 402.5,308.5C 401.299,311.872 399.466,314.872 397,317.5C 392.142,322.089 387.642,326.923 383.5,332C 381.645,332.422 379.811,332.922 378,333.5C 376.079,331.997 373.912,331.331 371.5,331.5C 371.581,334.716 372.081,337.716 373,340.5C 369.624,343.82 366.791,347.487 364.5,351.5C 363.391,351.443 362.391,351.11 361.5,350.5C 358.633,345.743 354.633,342.41 349.5,340.5C 349.262,337.931 347.929,336.265 345.5,335.5C 343.675,327.629 343.175,319.629 344,311.5C 345.751,309.51 346.751,307.177 347,304.5C 349.064,301.726 351.564,299.893 354.5,299C 353.007,300.156 353.174,300.99 355,301.5C 357.375,301.182 358.542,299.849 358.5,297.5C 357.5,297.5 356.5,297.5 355.5,297.5C 355.5,296.5 355.5,295.5 355.5,294.5C 359.021,293.318 362.021,291.318 364.5,288.5C 368.118,286.503 372.118,285.503 376.5,285.5C 378.167,285.667 379.833,285.833 381.5,286C 383.07,287.678 384.737,289.178 386.5,290.5C 392.224,292.65 395.224,290.483 395.5,284C 395.481,282.167 394.815,280.667 393.5,279.5C 388.866,273.775 382.699,271.441 375,272.5C 368.23,272.478 361.73,273.811 355.5,276.5C 354.575,277.357 353.908,278.357 353.5,279.5C 350.206,282.156 346.873,284.822 343.5,287.5C 341.629,287.859 340.129,288.859 339,290.5C 337.608,294.559 334.941,297.226 331,298.5C 328.614,308.621 327.947,318.955 329,329.5C 330.019,331.502 330.852,333.502 331.5,335.5C 331.967,341.644 334.634,346.644 339.5,350.5C 341.612,353.92 343.279,357.586 344.5,361.5C 341.606,361.042 339.106,361.709 337,363.5C 335.391,362.853 333.891,362.02 332.5,361C 334.18,360.966 335.68,360.799 337,360.5C 340.411,356.122 339.911,355.622 335.5,359C 329.806,358.551 324.806,360.051 320.5,363.5C 320.709,364.086 321.043,364.586 321.5,365C 319.022,366.938 318.855,369.105 321,371.5C 321.333,371.167 321.667,370.833 322,370.5C 323.361,372.028 324.528,373.695 325.5,375.5C 323.614,376.406 321.78,377.406 320,378.5C 319.667,377.833 319.333,377.167 319,376.5C 314.509,381.055 309.509,385.055 304,388.5C 303.667,388.167 303.333,387.833 303,387.5C 302.311,388.357 301.478,389.023 300.5,389.5C 299.304,389.154 299.304,388.654 300.5,388C 297.947,387.149 295.614,387.482 293.5,389C 294.973,389.71 295.64,390.876 295.5,392.5C 293.599,392.567 291.766,392.233 290,391.5C 288.989,391.892 288.489,392.559 288.5,393.5C 287.5,392.167 286.5,392.167 285.5,393.5C 281.701,391.578 277.701,391.078 273.5,392C 270.459,396.725 271.793,399.725 277.5,401C 268.861,403.986 260.694,407.153 253,410.5C 249.256,409.374 245.423,409.207 241.5,410C 243.167,410.333 244.833,410.667 246.5,411C 246,411.5 245.5,412 245,412.5C 243.755,412.539 242.422,412.205 241,411.5C 240.05,412.022 239.216,412.689 238.5,413.5C 237.389,412.389 236.055,411.722 234.5,411.5C 230.946,412.721 227.446,412.721 224,411.5C 223.312,412.332 223.479,412.998 224.5,413.5C 226.071,414.309 227.738,414.643 229.5,414.5C 229.5,415.5 229.5,416.5 229.5,417.5C 218.124,420.504 206.457,422.004 194.5,422C 191.972,424.057 188.972,425.057 185.5,425C 181.603,428.163 177.77,427.997 174,424.5C 171.742,425.253 169.742,425.253 168,424.5C 166.68,426.654 164.847,428.154 162.5,429C 154.631,431.062 146.631,432.728 138.5,434C 124.243,435.441 110.243,435.941 96.5,435.5C 96.7678,433.901 96.4345,432.568 95.5,431.5C 95.0472,430.542 94.3805,429.708 93.5,429C 90.4686,428.505 87.4686,428.671 84.5,429.5C 85.2096,432.86 83.8762,434.693 80.5,435C 79.9152,436.302 79.2485,437.469 78.5,438.5C 77.9094,437.849 77.2427,437.182 76.5,436.5C 77.5896,435.391 77.5896,434.391 76.5,433.5C 74.5914,434.348 72.5914,434.682 70.5,434.5C 69.2783,430.275 66.6116,427.275 62.5,425.5C 61.7267,423.187 61.0601,420.854 60.5,418.5C 57.4391,417.19 56.1058,414.857 56.5,411.5C 54.1016,411.741 52.1016,411.074 50.5,409.5C 49.8655,405.221 48.3655,401.221 46,397.5C 43.1076,396.606 40.7743,394.94 39,392.5C 37.2788,389.377 36.1121,386.044 35.5,382.5C 34.5,382.5 33.5,382.5 32.5,382.5C 32.5668,380.599 32.2335,378.766 31.5,377C 28.5197,372.37 26.0197,367.537 24,362.5C 22.3853,361.614 20.8853,360.614 19.5,359.5C 17.5,356.5 15.5,353.5 13.5,350.5C 11.8798,344.128 10.0465,337.794 8,331.5C 6.94798,325.856 6.11465,320.189 5.5,314.5C 5.42847,311.807 5.09513,309.14 4.5,306.5C 4.4858,304.389 5.15247,302.555 6.5,301C 4.49712,291.606 3.99712,282.106 5,272.5C 5.99544,267.547 6.6621,262.547 7,257.5C 8.94212,262.843 9.77545,262.51 9.5,256.5C 8.44802,256.649 7.44802,256.483 6.5,256C 7.62068,250.942 8.95401,245.942 10.5,241C 9.54948,237.943 9.21614,234.777 9.5,231.5C 9.33591,228.813 9.50258,226.146 10,223.5C 14.4991,211.679 18.4991,199.679 22,187.5C 25.8015,183.228 27.9682,178.228 28.5,172.5C 30.8297,169.215 33.1631,165.882 35.5,162.5C 41.7968,157.902 46.1301,151.902 48.5,144.5C 49.8333,144.5 51.1667,144.5 52.5,144.5C 52.1159,142.335 52.7826,140.668 54.5,139.5C 56.1667,140.833 57.8333,142.167 59.5,143.5C 59.8333,143 60.1667,142.5 60.5,142C 59.7437,139.909 58.577,138.076 57,136.5C 56.51,135.207 56.3433,133.873 56.5,132.5C 56.5,132.167 56.5,131.833 56.5,131.5C 67.1882,121.81 77.8548,112.143 88.5,102.5C 90.484,101.844 92.484,101.178 94.5,100.5C 95.4419,100.608 96.2753,100.941 97,101.5C 101.875,97.1491 107.375,93.9824 113.5,92C 116.807,89.0192 120.474,86.6858 124.5,85C 128.584,84.769 132.584,84.1024 136.5,83C 138.149,80.5046 140.483,79.0046 143.5,78.5C 146.843,79.3544 150.509,79.5211 154.5,79C 155.924,76.7822 157.924,75.2822 160.5,74.5C 164.155,76.8336 167.488,76.667 170.5,74C 168.624,72.9827 166.624,72.1494 164.5,71.5C 164.709,70.914 165.043,70.414 165.5,70C 168.592,70.2643 171.425,70.7643 174,71.5C 178.489,69.8969 182.655,67.7302 186.5,65C 194.582,64.4354 202.415,63.2688 210,61.5C 210.414,61.9574 210.914,62.2907 211.5,62.5C 214.358,61.3391 217.025,60.0057 219.5,58.5C 223.591,57.1045 227.924,56.4379 232.5,56.5C 233.172,63.1639 232.172,69.4972 229.5,75.5 Z"/></g>
<g><path style="opacity:1" fill="#e89441" d="M 233.5,71.5 C 233.573,73.0269 232.906,74.0269 231.5,74.5C 230.833,74.8333 230.167,75.1667 229.5,75.5C 232.172,69.4972 233.172,63.1639 232.5,56.5C 227.924,56.4379 223.591,57.1045 219.5,58.5C 204.783,60.2869 190.116,62.2869 175.5,64.5C 184.101,61.2439 193.101,59.2439 202.5,58.5C 208.537,58.8743 214.203,57.8743 219.5,55.5C 219.833,55.5 220.167,55.5 220.5,55.5C 224.857,55.4135 229.19,55.0802 233.5,54.5C 233.5,60.1667 233.5,65.8333 233.5,71.5 Z"/></g>
<g><path style="opacity:0.443" fill="#d1a56d" d="M 357.5,58.5 C 358.833,59.1667 359.833,60.1667 360.5,61.5C 358.833,61.5 357.167,61.5 355.5,61.5C 355.5,61.1667 355.5,60.8333 355.5,60.5C 356.5,60.1667 357.167,59.5 357.5,58.5 Z"/></g>
<g><path style="opacity:1" fill="#c78542" d="M 234.5,53.5 C 234.823,59.69 234.49,65.69 233.5,71.5C 233.5,65.8333 233.5,60.1667 233.5,54.5C 229.19,55.0802 224.857,55.4135 220.5,55.5C 224.943,54.1985 229.609,53.5319 234.5,53.5 Z"/></g>
<g><path style="opacity:0.549" fill="#e59f59" d="M 360.5,61.5 C 373.197,65.681 384.864,71.681 395.5,79.5C 385.278,74.222 374.945,69.222 364.5,64.5C 362.924,63.8571 361.59,62.8571 360.5,61.5 Z"/></g>
<g><path style="opacity:1" fill="#a88b1d" d="M 355.5,61.5 C 353.665,66.337 350.999,70.6704 347.5,74.5C 345.427,75.2995 343.76,76.6329 342.5,78.5C 342.709,77.0783 343.209,75.745 344,74.5C 348.538,72.2211 351.205,68.5544 352,63.5C 352.816,62.1772 353.983,61.5106 355.5,61.5 Z"/></g>
<g><path style="opacity:0.569" fill="#e7ac66" d="M 175.5,64.5 C 174.571,65.3149 173.571,66.1482 172.5,67C 167.768,67.115 163.434,68.2817 159.5,70.5C 158.167,70.5 156.833,70.5 155.5,70.5C 161.799,67.5877 168.465,65.5877 175.5,64.5 Z"/></g>
<g><path style="opacity:1" fill="#699e27" d="M 325.5,27.5 C 321.627,31.3538 317.627,35.1872 313.5,39C 306.737,43.3648 300.07,47.8648 293.5,52.5C 289.391,55.6592 286.058,59.4925 283.5,64C 279.788,66.7275 276.122,69.3942 272.5,72C 269.47,75.5917 268.136,79.7584 268.5,84.5C 271.187,84.6641 273.854,84.4974 276.5,84C 281.351,80.4057 286.017,76.5723 290.5,72.5C 310.516,59.3422 330.183,45.5089 349.5,31C 353.843,28.0129 356.51,24.0129 357.5,19C 357.241,17.2134 356.575,15.7134 355.5,14.5C 357.435,13.8505 359.435,13.5172 361.5,13.5C 361.238,14.9778 361.571,16.3112 362.5,17.5C 363.696,17.1543 363.696,16.6543 362.5,16C 363.793,15.51 365.127,15.3433 366.5,15.5C 366.711,24.0313 365.544,32.3646 363,40.5C 356.798,44.8796 353.965,50.8796 354.5,58.5C 351.53,58.7458 350.197,60.4124 350.5,63.5C 346.55,64.3954 342.55,65.3954 338.5,66.5C 337.754,67.7362 337.421,69.0695 337.5,70.5C 339.144,70.7135 340.644,70.3802 342,69.5C 342.692,70.0253 343.192,70.6919 343.5,71.5C 340.631,73.698 338.631,76.5313 337.5,80C 335.509,80.3736 333.842,81.207 332.5,82.5C 331.027,84.3947 329.36,86.0613 327.5,87.5C 323.167,88.8333 318.833,90.1667 314.5,91.5C 310.537,91.0889 306.87,91.9222 303.5,94C 294.109,96.0412 284.775,95.8746 275.5,93.5C 276.768,91.953 278.435,90.953 280.5,90.5C 281.386,89.675 281.719,88.675 281.5,87.5C 275.874,87.0502 270.374,86.0502 265,84.5C 264.333,85.1667 263.667,85.8333 263,86.5C 260.859,85.9251 258.359,85.5918 255.5,85.5C 255.308,79.5841 256.808,74.2508 260,69.5C 260.92,66.8987 261.587,64.2321 262,61.5C 265.582,56.6954 268.915,51.6954 272,46.5C 274.874,45.4678 276.374,43.4678 276.5,40.5C 278.371,40.1412 279.871,39.1412 281,37.5C 281.333,37.8333 281.667,38.1667 282,38.5C 283.091,36.2823 284.257,34.1156 285.5,32C 287.473,31.5045 289.473,31.3379 291.5,31.5C 290.945,35.0122 291.612,38.0122 293.5,40.5C 295.334,44.1675 298.334,45.3341 302.5,44C 306.133,39.2207 309.633,34.3873 313,29.5C 315.274,26.7702 316.44,23.6035 316.5,20C 317.586,15.4028 315.919,12.9028 311.5,12.5C 313.545,10.0156 316.212,9.01558 319.5,9.5C 319.909,14.6039 320.409,19.9372 321,25.5C 322.11,27.0368 323.61,27.7035 325.5,27.5 Z"/></g>
<g><path style="opacity:1" fill="#88bf41" d="M 355.5,14.5 C 356.575,15.7134 357.241,17.2134 357.5,19C 356.51,24.0129 353.843,28.0129 349.5,31C 330.183,45.5089 310.516,59.3422 290.5,72.5C 286.017,76.5723 281.351,80.4057 276.5,84C 273.854,84.4974 271.187,84.6641 268.5,84.5C 268.136,79.7584 269.47,75.5917 272.5,72C 276.122,69.3942 279.788,66.7275 283.5,64C 286.058,59.4925 289.391,55.6592 293.5,52.5C 300.07,47.8648 306.737,43.3648 313.5,39C 317.627,35.1872 321.627,31.3538 325.5,27.5C 334.121,20.0679 344.121,15.7346 355.5,14.5 Z"/></g>
<g><path style="opacity:1" fill="#88bf40" d="M 319.5,63.5 C 324.679,63.198 329.679,63.8647 334.5,65.5C 335.157,70.4165 333.824,74.5832 330.5,78C 324.167,78.6667 317.833,78.6667 311.5,78C 304.894,74.5117 304.894,70.8451 311.5,67C 314.374,66.0575 317.04,64.8908 319.5,63.5 Z"/></g>
<g><path style="opacity:1" fill="#ee9845" d="M 155.5,70.5 C 156.833,70.5 158.167,70.5 159.5,70.5C 158.064,72.083 156.398,73.583 154.5,75C 148.551,76.4898 142.551,77.6565 136.5,78.5C 139.055,77.5389 141.388,76.2055 143.5,74.5C 147.285,72.5715 151.285,71.2382 155.5,70.5 Z"/></g>
<g><path style="opacity:1" fill="#f58e24" d="M 219.5,58.5 C 217.025,60.0057 214.358,61.3391 211.5,62.5C 210.914,62.2907 210.414,61.9574 210,61.5C 202.415,63.2688 194.582,64.4354 186.5,65C 182.655,67.7302 178.489,69.8969 174,71.5C 171.425,70.7643 168.592,70.2643 165.5,70C 165.043,70.414 164.709,70.914 164.5,71.5C 166.624,72.1494 168.624,72.9827 170.5,74C 167.488,76.667 164.155,76.8336 160.5,74.5C 157.924,75.2822 155.924,76.7822 154.5,79C 150.509,79.5211 146.843,79.3544 143.5,78.5C 140.483,79.0046 138.149,80.5046 136.5,83C 132.584,84.1024 128.584,84.769 124.5,85C 120.474,86.6858 116.807,89.0192 113.5,92C 107.375,93.9824 101.875,97.1491 97,101.5C 96.2753,100.941 95.4419,100.608 94.5,100.5C 92.484,101.178 90.484,101.844 88.5,102.5C 91.1667,100.167 93.8333,97.8333 96.5,95.5C 97.8734,95.6567 99.2068,95.49 100.5,95C 108.26,90.7905 115.927,86.6238 123.5,82.5C 128.189,82.2563 132.522,80.923 136.5,78.5C 142.551,77.6565 148.551,76.4898 154.5,75C 156.398,73.583 158.064,72.083 159.5,70.5C 163.434,68.2817 167.768,67.115 172.5,67C 173.571,66.1482 174.571,65.3149 175.5,64.5C 190.116,62.2869 204.783,60.2869 219.5,58.5 Z"/></g>
<g><path style="opacity:0.62" fill="#e8b072" d="M 143.5,74.5 C 141.388,76.2055 139.055,77.5389 136.5,78.5C 132.522,80.923 128.189,82.2563 123.5,82.5C 129.852,79.2666 136.518,76.5999 143.5,74.5 Z"/></g>
<g><path style="opacity:1" fill="#502e13" d="M 235.5,52.5 C 235.5,53.1667 235.833,53.5 236.5,53.5C 236.666,60.5079 236.5,67.5079 236,74.5C 233.104,76.376 231.938,79.0426 232.5,82.5C 232.637,84.8834 232.971,87.2168 233.5,89.5C 232.21,88.9423 231.377,87.9423 231,86.5C 230.306,82.446 230.473,78.446 231.5,74.5C 232.906,74.0269 233.573,73.0269 233.5,71.5C 234.49,65.69 234.823,59.69 234.5,53.5C 234.5,52.8333 234.833,52.5 235.5,52.5 Z"/></g>
<g><path style="opacity:1" fill="#6b7254" d="M 251.5,73.5 C 249.55,80.3608 250.55,86.6941 254.5,92.5C 252.629,92.1412 251.129,91.1412 250,89.5C 248.412,84.5365 248.245,79.5365 249.5,74.5C 250.183,74.1373 250.85,73.8039 251.5,73.5 Z"/></g>
<g><path style="opacity:1" fill="#372f25" d="M 238.5,49.5 C 238.804,50.1499 239.137,50.8165 239.5,51.5C 236.908,54.3135 236.908,57.1468 239.5,60C 238.978,60.9503 238.311,61.7836 237.5,62.5C 238.415,63.3279 239.081,64.3279 239.5,65.5C 238.897,69.5541 238.064,73.5541 237,77.5C 236.25,78.1258 235.416,78.6258 234.5,79C 235.112,80.859 235.112,82.859 234.5,85C 234.667,86.1667 234.833,87.3333 235,88.5C 238.544,89.5517 241.377,91.5517 243.5,94.5C 240.02,93.5117 236.687,92.1784 233.5,90.5C 233.5,90.1667 233.5,89.8333 233.5,89.5C 232.971,87.2168 232.637,84.8834 232.5,82.5C 231.938,79.0426 233.104,76.376 236,74.5C 236.5,67.5079 236.666,60.5079 236.5,53.5C 236.157,51.5168 236.824,50.1834 238.5,49.5 Z"/></g>
<g><path style="opacity:0.569" fill="#e8aa66" d="M 395.5,79.5 C 401.557,82.5293 406.891,86.5293 411.5,91.5C 406.869,88.5526 402.202,85.5526 397.5,82.5C 396.575,81.6431 395.908,80.6431 395.5,79.5 Z"/></g>
<g><path style="opacity:1" fill="#8da35f" d="M 258.5,57.5 C 258.5,58.8333 258.5,60.1667 258.5,61.5C 254.453,70.1366 253.286,79.1366 255,88.5C 257.068,90.3962 258.901,92.3962 260.5,94.5C 260.5,95.1667 260.167,95.5 259.5,95.5C 259.167,95.5 258.833,95.5 258.5,95.5C 257.791,94.596 256.791,94.2627 255.5,94.5C 255.167,93.8333 254.833,93.1667 254.5,92.5C 250.55,86.6941 249.55,80.3608 251.5,73.5C 252.842,69.1415 254.342,64.8082 256,60.5C 256.377,59.0577 257.21,58.0577 258.5,57.5 Z"/></g>
<g><path style="opacity:1" fill="#6f9b2a" d="M 276.5,40.5 C 276.374,43.4678 274.874,45.4678 272,46.5C 268.915,51.6954 265.582,56.6954 262,61.5C 261.587,64.2321 260.92,66.8987 260,69.5C 256.808,74.2508 255.308,79.5841 255.5,85.5C 258.359,85.5918 260.859,85.9251 263,86.5C 263.667,85.8333 264.333,85.1667 265,84.5C 270.374,86.0502 275.874,87.0502 281.5,87.5C 281.719,88.675 281.386,89.675 280.5,90.5C 278.435,90.953 276.768,91.953 275.5,93.5C 284.775,95.8746 294.109,96.0412 303.5,94C 306.87,91.9222 310.537,91.0889 314.5,91.5C 308.678,94.0798 302.678,96.0798 296.5,97.5C 289.825,97.6663 283.158,97.4996 276.5,97C 271.257,95.5217 265.924,94.6884 260.5,94.5C 258.901,92.3962 257.068,90.3962 255,88.5C 253.286,79.1366 254.453,70.1366 258.5,61.5C 260.913,59.0944 262.913,56.4277 264.5,53.5C 266.463,52.0401 268.296,50.3734 270,48.5C 270.716,44.7085 272.883,42.0418 276.5,40.5 Z"/></g>
<g><path style="opacity:0.847" fill="#e9a764" d="M 123.5,82.5 C 115.927,86.6238 108.26,90.7905 100.5,95C 99.2068,95.49 97.8734,95.6567 96.5,95.5C 104.801,89.8506 113.801,85.5173 123.5,82.5 Z"/></g>
<g><path style="opacity:1" fill="#ca8621" d="M 347.5,74.5 C 345.757,77.7504 343.423,80.5838 340.5,83C 332.612,88.7954 323.946,92.9621 314.5,95.5C 310.833,96.1667 307.167,96.8333 303.5,97.5C 308.627,95.376 313.961,93.5426 319.5,92C 322.412,90.768 325.078,89.268 327.5,87.5C 331.15,85.0463 335.15,83.213 339.5,82C 340.71,80.9609 341.71,79.7942 342.5,78.5C 343.76,76.6329 345.427,75.2995 347.5,74.5 Z"/></g>
<g><path style="opacity:1" fill="#c4712e" d="M 231.5,74.5 C 230.473,78.446 230.306,82.446 231,86.5C 231.377,87.9423 232.21,88.9423 233.5,89.5C 233.5,89.8333 233.5,90.1667 233.5,90.5C 234.942,91.8195 235.608,93.4862 235.5,95.5C 237.099,95.2322 238.432,95.5655 239.5,96.5C 242.55,97.9352 245.883,98.6019 249.5,98.5C 251.952,98.4609 253.952,97.7943 255.5,96.5C 256.609,96.4431 257.609,96.1098 258.5,95.5C 258.833,95.5 259.167,95.5 259.5,95.5C 261.167,96.1667 262.833,96.8333 264.5,97.5C 261.772,97.1706 259.438,97.8372 257.5,99.5C 251.824,99.6661 246.157,99.4994 240.5,99C 230.383,94.3349 226.716,86.5016 229.5,75.5C 230.167,75.1667 230.833,74.8333 231.5,74.5 Z"/></g>
<g><path style="opacity:1" fill="#ec9b4b" d="M 411.5,91.5 C 422.188,98.8545 431.188,107.855 438.5,118.5C 436.5,116.833 434.5,115.167 432.5,113.5C 427.485,108.323 421.985,103.656 416,99.5C 415.667,98.1667 415.333,96.8333 415,95.5C 413.373,94.4677 412.207,93.1344 411.5,91.5 Z"/></g>
<g><path style="opacity:1" fill="#f57a19" d="M 355.5,61.5 C 357.167,61.5 358.833,61.5 360.5,61.5C 361.59,62.8571 362.924,63.8571 364.5,64.5C 365.116,66.4171 366.45,67.5838 368.5,68C 364.699,71.0528 361.699,74.7195 359.5,79C 358.101,79.5946 356.768,79.4279 355.5,78.5C 354,80.5056 352.167,82.1723 350,83.5C 345.73,84.9436 341.564,86.6103 337.5,88.5C 336.614,89.325 336.281,90.325 336.5,91.5C 333.196,91.3002 330.696,92.6336 329,95.5C 321.219,99.3096 313.053,101.81 304.5,103C 302.27,105.063 299.603,106.396 296.5,107C 285.982,107.749 275.482,107.583 265,106.5C 257.236,108.209 249.403,108.709 241.5,108C 233.379,107.218 227.379,103.218 223.5,96C 224.297,92.2546 224.797,88.4213 225,84.5C 226.059,81.1968 227.559,78.1968 229.5,75.5C 226.716,86.5016 230.383,94.3349 240.5,99C 246.157,99.4994 251.824,99.6661 257.5,99.5C 274.914,101.253 292.247,100.753 309.5,98C 311.315,97.2432 312.981,96.4098 314.5,95.5C 323.946,92.9621 332.612,88.7954 340.5,83C 343.423,80.5838 345.757,77.7504 347.5,74.5C 350.999,70.6704 353.665,66.337 355.5,61.5 Z"/></g>
<g><path style="opacity:1" fill="#dc8220" d="M 314.5,95.5 C 312.981,96.4098 311.315,97.2432 309.5,98C 292.247,100.753 274.914,101.253 257.5,99.5C 259.438,97.8372 261.772,97.1706 264.5,97.5C 264.833,97.5 265.167,97.5 265.5,97.5C 266.609,98.29 267.942,98.79 269.5,99C 274.167,99.1667 278.833,99.3333 283.5,99.5C 290.08,99.7161 296.413,99.0494 302.5,97.5C 302.833,97.5 303.167,97.5 303.5,97.5C 307.167,96.8333 310.833,96.1667 314.5,95.5 Z"/></g>
<g><path style="opacity:1" fill="#be8821" d="M 265.5,97.5 C 275.988,98.6857 286.322,98.6857 296.5,97.5C 298.5,97.5 300.5,97.5 302.5,97.5C 296.413,99.0494 290.08,99.7161 283.5,99.5C 278.833,99.3333 274.167,99.1667 269.5,99C 267.942,98.79 266.609,98.29 265.5,97.5 Z"/></g>
<g><path style="opacity:1" fill="#9b8c21" d="M 260.5,94.5 C 265.924,94.6884 271.257,95.5217 276.5,97C 283.158,97.4996 289.825,97.6663 296.5,97.5C 286.322,98.6857 275.988,98.6857 265.5,97.5C 265.167,97.5 264.833,97.5 264.5,97.5C 262.833,96.8333 261.167,96.1667 259.5,95.5C 260.167,95.5 260.5,95.1667 260.5,94.5 Z"/></g>
<g><path style="opacity:1" fill="#6e3a1a" d="M 239.5,96.5 C 244.833,96.5 250.167,96.5 255.5,96.5C 253.952,97.7943 251.952,98.4609 249.5,98.5C 245.883,98.6019 242.55,97.9352 239.5,96.5 Z"/></g>
<g><path style="opacity:1" fill="#4f331a" d="M 233.5,90.5 C 236.687,92.1784 240.02,93.5117 243.5,94.5C 247.064,95.4227 250.731,95.756 254.5,95.5C 255.167,95.5 255.5,95.1667 255.5,94.5C 256.791,94.2627 257.791,94.596 258.5,95.5C 257.609,96.1098 256.609,96.4431 255.5,96.5C 250.167,96.5 244.833,96.5 239.5,96.5C 238.432,95.5655 237.099,95.2322 235.5,95.5C 235.608,93.4862 234.942,91.8195 233.5,90.5 Z"/></g>
<g><path style="opacity:1" fill="#988e1e" d="M 327.5,87.5 C 325.078,89.268 322.412,90.768 319.5,92C 313.961,93.5426 308.627,95.376 303.5,97.5C 303.167,97.5 302.833,97.5 302.5,97.5C 300.5,97.5 298.5,97.5 296.5,97.5C 302.678,96.0798 308.678,94.0798 314.5,91.5C 318.833,90.1667 323.167,88.8333 327.5,87.5 Z"/></g>
<g><path style="opacity:1" fill="#a08c1f" d="M 342.5,78.5 C 341.71,79.7942 340.71,80.9609 339.5,82C 335.15,83.213 331.15,85.0463 327.5,87.5C 329.36,86.0613 331.027,84.3947 332.5,82.5C 336.289,82.1299 339.622,80.7966 342.5,78.5 Z"/></g>
<g><path style="opacity:1" fill="#e79641" d="M 96.5,95.5 C 93.8333,97.8333 91.1667,100.167 88.5,102.5C 77.8548,112.143 67.1882,121.81 56.5,131.5C 65.8923,121.106 75.8923,111.439 86.5,102.5C 89.2749,99.3954 92.6082,97.0621 96.5,95.5 Z"/></g>
<g><path style="opacity:0.522" fill="#e5ae6e" d="M 86.5,102.5 C 75.8923,111.439 65.8923,121.106 56.5,131.5C 56.5,131.833 56.5,132.167 56.5,132.5C 51.1281,137.87 46.1281,143.537 41.5,149.5C 50.3948,135.087 61.3948,122.253 74.5,111C 78.12,107.533 82.12,104.7 86.5,102.5 Z"/></g>
<g><path style="opacity:1" fill="#ec973c" d="M 175.5,155.5 C 176.5,152.833 177.5,150.167 178.5,147.5C 178.5,147.167 178.5,146.833 178.5,146.5C 180.508,130.343 173.175,123.176 156.5,125C 155.429,125.852 154.429,126.685 153.5,127.5C 151.596,127.738 150.262,128.738 149.5,130.5C 146.178,131.658 144.012,133.992 143,137.5C 142.19,141.358 142.357,145.024 143.5,148.5C 146.816,157.275 153.316,161.608 163,161.5C 167.187,160.499 171.02,158.832 174.5,156.5C 172.629,159.061 170.629,161.561 168.5,164C 152.848,166.042 143.515,159.542 140.5,144.5C 140.602,139.962 141.602,135.629 143.5,131.5C 146.569,130.597 148.902,128.764 150.5,126C 158.606,123.223 166.939,122.723 175.5,124.5C 175.343,125.873 175.51,127.207 176,128.5C 181.711,134.913 183.045,142.246 180,150.5C 179.004,152.66 177.504,154.327 175.5,155.5 Z"/></g>
<g><path style="opacity:1" fill="#e79356" d="M 438.5,118.5 C 444.987,124.988 450.32,132.321 454.5,140.5C 453.279,139.972 452.113,139.305 451,138.5C 448.685,134.362 445.852,130.695 442.5,127.5C 441.969,125.456 440.802,123.789 439,122.5C 438.51,121.207 438.343,119.873 438.5,118.5 Z"/></g>
<g><path style="opacity:1" fill="#fddfc2" d="M 178.5,146.5 C 178.5,146.833 178.5,147.167 178.5,147.5C 176.946,148.914 175.612,150.581 174.5,152.5C 173.311,153.429 171.978,153.762 170.5,153.5C 170.714,155.144 170.38,156.644 169.5,158C 159.881,161.227 152.381,158.727 147,150.5C 146.5,149 146,147.5 145.5,146C 145.807,143.429 146.307,140.596 147,137.5C 148.965,134.035 151.132,130.702 153.5,127.5C 169.119,124.468 177.453,130.801 178.5,146.5 Z"/></g>
<g><path style="opacity:1" fill="#f18f26" d="M 56.5,132.5 C 56.3433,133.873 56.51,135.207 57,136.5C 58.577,138.076 59.7437,139.909 60.5,142C 60.1667,142.5 59.8333,143 59.5,143.5C 57.8333,142.167 56.1667,140.833 54.5,139.5C 52.7826,140.668 52.1159,142.335 52.5,144.5C 51.1667,144.5 49.8333,144.5 48.5,144.5C 46.1301,151.902 41.7968,157.902 35.5,162.5C 37.3111,159.556 39.1444,156.556 41,153.5C 41.49,152.207 41.6567,150.873 41.5,149.5C 46.1281,143.537 51.1281,137.87 56.5,132.5 Z"/></g>
<g><path style="opacity:1" fill="#fbc482" d="M 178.5,146.5 C 177.453,130.801 169.119,124.468 153.5,127.5C 154.429,126.685 155.429,125.852 156.5,125C 173.175,123.176 180.508,130.343 178.5,146.5 Z"/></g>
<g><path style="opacity:1" fill="#f6b469" d="M 149.5,130.5 C 144.687,135.481 142.687,141.481 143.5,148.5C 142.357,145.024 142.19,141.358 143,137.5C 144.012,133.992 146.178,131.658 149.5,130.5 Z"/></g>
<g><path style="opacity:1" fill="#fb761b" d="M 432.5,113.5 C 434.5,115.167 436.5,116.833 438.5,118.5C 438.343,119.873 438.51,121.207 439,122.5C 440.802,123.789 441.969,125.456 442.5,127.5C 442.378,130.257 443.545,132.257 446,133.5C 446.497,135.81 446.663,138.143 446.5,140.5C 449.547,139.855 451.713,140.855 453,143.5C 453.631,146.393 454.464,149.226 455.5,152C 454.006,154.639 453.339,157.472 453.5,160.5C 456.773,160.471 457.44,161.804 455.5,164.5C 456.547,166.056 457.214,167.723 457.5,169.5C 458.93,169.421 460.264,169.754 461.5,170.5C 462.065,172.51 463.065,174.176 464.5,175.5C 465.324,178.785 465.824,182.118 466,185.5C 467.044,184.377 467.71,183.044 468,181.5C 469.964,184.388 469.797,187.221 467.5,190C 468.579,190.956 469.745,191.789 471,192.5C 472.324,197.039 472.49,201.539 471.5,206C 471.833,206.167 472.167,206.333 472.5,206.5C 473.167,204.5 473.833,202.5 474.5,200.5C 475.086,200.709 475.586,201.043 476,201.5C 478.373,207.617 479.706,213.95 480,220.5C 481,222.833 482,225.167 483,227.5C 483.282,233.216 483.948,238.883 485,244.5C 485.383,245.056 485.883,245.389 486.5,245.5C 487.166,251.491 487.5,257.657 487.5,264C 487.225,277.856 486.558,291.69 485.5,305.5C 482.204,315.339 479.204,325.339 476.5,335.5C 474.781,337.816 472.948,340.15 471,342.5C 470.304,345.478 469.804,348.478 469.5,351.5C 466.952,354.248 465.118,357.581 464,361.5C 461.09,362.45 459.923,364.45 460.5,367.5C 459.167,367.5 457.833,367.5 456.5,367.5C 455.719,371.312 454.385,374.979 452.5,378.5C 450.741,379.754 449.241,379.421 448,377.5C 448.278,381.139 448.278,384.806 448,388.5C 446.989,389.337 445.822,389.67 444.5,389.5C 444.323,392.837 443.323,395.837 441.5,398.5C 441.5,398.833 441.5,399.167 441.5,399.5C 436.9,403.762 432.233,408.095 427.5,412.5C 426.12,414.862 424.787,417.195 423.5,419.5C 422.167,419.5 420.833,419.5 419.5,419.5C 419.5,420.5 419.5,421.5 419.5,422.5C 416.886,422.277 415.219,423.444 414.5,426C 412.564,426.813 410.564,427.313 408.5,427.5C 408.5,428.5 408.5,429.5 408.5,430.5C 406.801,430.34 405.134,430.506 403.5,431C 404.38,432.356 404.714,433.856 404.5,435.5C 402.833,435.5 401.167,435.5 399.5,435.5C 399.5,436.5 399.5,437.5 399.5,438.5C 397.077,438.424 395.244,439.424 394,441.5C 392.237,441.025 390.57,440.358 389,439.5C 387.895,442.83 386.062,445.663 383.5,448C 380.77,448.728 378.103,448.562 375.5,447.5C 369.166,450.078 363.166,453.245 357.5,457C 357.833,457.333 358.167,457.667 358.5,458C 347.219,460.818 335.886,463.318 324.5,465.5C 321.953,465.558 319.62,464.891 317.5,463.5C 313.822,466.65 309.656,467.317 305,465.5C 302.214,467.662 299.214,468.329 296,467.5C 291.322,469.242 286.488,469.742 281.5,469C 283.5,468.167 285.5,467.333 287.5,466.5C 281.193,465.336 274.859,465.169 268.5,466C 268.043,466.414 267.709,466.914 267.5,467.5C 268.689,468.429 270.022,468.762 271.5,468.5C 270.873,472.946 268.206,475.113 263.5,475C 236.466,476.129 209.466,476.629 182.5,476.5C 179.311,475.834 175.977,475.167 172.5,474.5C 175.276,472.721 174.943,471.721 171.5,471.5C 168.994,472.643 166.328,473.31 163.5,473.5C 158.134,472.106 152.801,470.606 147.5,469C 142.5,468.667 137.5,468.333 132.5,468C 131.194,464.861 128.861,463.028 125.5,462.5C 124.075,456.359 121.908,456.026 119,461.5C 115.613,459.888 112.446,457.888 109.5,455.5C 108.264,456.246 106.93,456.579 105.5,456.5C 101.893,452.994 97.5592,450.494 92.5,449C 91.6634,447.989 91.33,446.822 91.5,445.5C 86.1807,444.778 81.8473,442.445 78.5,438.5C 79.2485,437.469 79.9152,436.302 80.5,435C 83.8762,434.693 85.2096,432.86 84.5,429.5C 87.4686,428.671 90.4686,428.505 93.5,429C 94.3805,429.708 95.0472,430.542 95.5,431.5C 95.2606,433.467 95.5939,435.301 96.5,437C 98.764,437.236 100.931,437.736 103,438.5C 123.181,436.844 143.348,434.677 163.5,432C 167.288,426.978 171.954,426.145 177.5,429.5C 190.507,426.614 203.34,424.947 216,424.5C 221.513,422.697 227.013,421.03 232.5,419.5C 233.417,420.127 234.417,420.461 235.5,420.5C 237.981,420.323 239.814,421.323 241,423.5C 244.92,420.456 249.42,418.956 254.5,419C 255.337,417.989 255.67,416.822 255.5,415.5C 258.471,414.933 261.305,413.933 264,412.5C 265.749,413.299 267.082,412.632 268,410.5C 268.414,410.957 268.914,411.291 269.5,411.5C 273.719,409.951 277.719,407.951 281.5,405.5C 281.833,406.167 282.167,406.833 282.5,407.5C 286.639,405.972 290.972,404.972 295.5,404.5C 298.749,403.083 301.583,401.083 304,398.5C 304.494,396.866 304.66,395.199 304.5,393.5C 308.253,392.125 311.92,390.458 315.5,388.5C 316.451,389.326 317.451,389.492 318.5,389C 319.167,387.333 319.833,385.667 320.5,384C 322.433,383.749 324.266,383.249 326,382.5C 326.333,382.833 326.667,383.167 327,383.5C 329.52,379.627 333.02,377.46 337.5,377C 340.327,373.695 343.994,372.028 348.5,372C 349.657,368.014 352.324,366.181 356.5,366.5C 366.432,368.061 376.432,368.895 386.5,369C 383.879,369.906 384.046,370.406 387,370.5C 389.997,368.925 392.83,367.259 395.5,365.5C 398.187,365.664 400.854,365.497 403.5,365C 405.351,360.756 407.351,360.589 409.5,364.5C 410.689,365.429 412.022,365.762 413.5,365.5C 413.675,362.671 412.342,361.004 409.5,360.5C 411.08,355.789 413.58,351.789 417,348.5C 419.214,344.357 420.714,340.023 421.5,335.5C 421.987,334.527 422.487,333.527 423,332.5C 423.5,313.503 423.667,294.503 423.5,275.5C 427.445,264.748 431.945,254.082 437,243.5C 438.445,233.801 439.945,224.135 441.5,214.5C 439.826,212.651 438.826,210.484 438.5,208C 440.393,205.255 441.393,202.088 441.5,198.5C 443.08,175.976 441.247,153.976 436,132.5C 434.854,130.356 433.354,128.523 431.5,127C 433.861,124.062 433.861,121.062 431.5,118C 431.47,116.571 431.803,115.071 432.5,113.5 Z"/></g>
<g><path style="opacity:0.875" fill="#e19153" d="M 454.5,140.5 C 459.266,148.368 463.266,156.701 466.5,165.5C 465.504,165.586 464.671,165.252 464,164.5C 463.667,162.833 463.333,161.167 463,159.5C 460.667,155.5 458.333,151.5 456,147.5C 455.023,145.26 454.523,142.927 454.5,140.5 Z"/></g>
<g><path style="opacity:1" fill="#fed6a3" d="M 153.5,127.5 C 151.132,130.702 148.965,134.035 147,137.5C 146.307,140.596 145.807,143.429 145.5,146C 146,147.5 146.5,149 147,150.5C 152.381,158.727 159.881,161.227 169.5,158C 170.38,156.644 170.714,155.144 170.5,153.5C 171.978,153.762 173.311,153.429 174.5,152.5C 175.612,150.581 176.946,148.914 178.5,147.5C 177.5,150.167 176.5,152.833 175.5,155.5C 174.833,155.5 174.5,155.833 174.5,156.5C 171.02,158.832 167.187,160.499 163,161.5C 153.316,161.608 146.816,157.275 143.5,148.5C 142.687,141.481 144.687,135.481 149.5,130.5C 150.262,128.738 151.596,127.738 153.5,127.5 Z"/></g>
<g><path style="opacity:1" fill="#f39432" d="M 135.5,185.5 C 135.5,184.833 135.5,184.167 135.5,183.5C 138.22,180.322 139.054,176.655 138,172.5C 137.292,171.619 136.458,170.953 135.5,170.5C 135.423,169.25 134.756,168.417 133.5,168C 130.571,167.223 127.737,167.39 125,168.5C 121.913,171.883 120.913,175.883 122,180.5C 122.377,181.942 123.21,182.942 124.5,183.5C 120.427,185.135 116.094,186.135 111.5,186.5C 110.876,186.917 110.543,187.584 110.5,188.5C 113.039,194.873 113.039,201.206 110.5,207.5C 110.665,203.818 110.499,200.152 110,196.5C 105.173,190.776 106.006,185.776 112.5,181.5C 114.781,183.716 117.448,184.549 120.5,184C 119.69,180.797 118.69,177.631 117.5,174.5C 119.271,171.553 121.271,168.719 123.5,166C 136.967,162.236 143.301,167.236 142.5,181C 140.812,183.507 138.479,185.007 135.5,185.5 Z"/></g>
<g><path style="opacity:1" fill="#f09538" d="M 179.5,173.5 C 175.854,172.717 172.188,172.55 168.5,173C 166.859,174.129 165.859,175.629 165.5,177.5C 165.342,180.902 165.676,184.236 166.5,187.5C 166.953,188.458 167.619,189.292 168.5,190C 177.323,192.008 181.99,188.508 182.5,179.5C 183.156,180.622 183.489,181.955 183.5,183.5C 183.121,186.582 182.454,189.582 181.5,192.5C 166.818,194.485 160.485,188.152 162.5,173.5C 164.681,173.716 166.347,172.883 167.5,171C 171.486,170.501 175.486,170.334 179.5,170.5C 179.5,171.5 179.5,172.5 179.5,173.5 Z"/></g>
<g><path style="opacity:1" fill="#fdc785" d="M 135.5,170.5 C 124.03,168.316 120.697,172.649 125.5,183.5C 125.167,183.5 124.833,183.5 124.5,183.5C 123.21,182.942 122.377,181.942 122,180.5C 120.913,175.883 121.913,171.883 125,168.5C 127.737,167.39 130.571,167.223 133.5,168C 134.756,168.417 135.423,169.25 135.5,170.5 Z"/></g>
<g><path style="opacity:1" fill="#e58f4b" d="M 466.5,165.5 C 472.138,179.08 476.804,193.08 480.5,207.5C 476.163,201.335 473.663,194.335 473,186.5C 471.414,184.33 470.08,181.996 469,179.5C 468.471,174.757 467.638,170.091 466.5,165.5 Z"/></g>
<g><path style="opacity:1" fill="#fcdfb8" d="M 166.5,187.5 C 165.676,184.236 165.342,180.902 165.5,177.5C 167.681,177.716 169.347,176.883 170.5,175C 178.993,173.027 182.16,176.193 180,184.5C 176.469,189.794 171.969,190.794 166.5,187.5 Z"/></g>
<g><path style="opacity:1" fill="#fedaaa" d="M 135.5,170.5 C 136.458,170.953 137.292,171.619 138,172.5C 139.054,176.655 138.22,180.322 135.5,183.5C 132.167,183.5 128.833,183.5 125.5,183.5C 120.697,172.649 124.03,168.316 135.5,170.5 Z"/></g>
<g><path style="opacity:1" fill="#f7e0c3" d="M 127.5,170.5 C 133.957,171.186 136.29,174.852 134.5,181.5C 125.445,182.139 123.111,178.472 127.5,170.5 Z"/></g>
<g><path style="opacity:1" fill="#f29b3a" d="M 305.5,202.5 C 307.415,202.784 309.081,202.451 310.5,201.5C 311.496,196.537 311.663,191.537 311,186.5C 310.5,186 310,185.5 309.5,185C 288.133,183.748 266.799,183.581 245.5,184.5C 255.979,183.168 266.812,182.501 278,182.5C 288.833,182.667 299.667,182.833 310.5,183C 311.333,183.833 312.167,184.667 313,185.5C 313.667,190.5 313.667,195.5 313,200.5C 312.626,201.416 312.126,202.25 311.5,203C 309.288,203.789 307.288,203.622 305.5,202.5 Z"/></g>
<g><path style="opacity:1" fill="#f3b05f" d="M 124.5,183.5 C 124.833,183.5 125.167,183.5 125.5,183.5C 128.833,183.5 132.167,183.5 135.5,183.5C 135.5,184.167 135.5,184.833 135.5,185.5C 134.761,185.369 134.094,185.536 133.5,186C 132.385,188.131 131.052,189.965 129.5,191.5C 129.773,189.549 129.107,188.049 127.5,187C 122.177,186.501 116.844,186.334 111.5,186.5C 116.094,186.135 120.427,185.135 124.5,183.5 Z"/></g>
<g><path style="opacity:1" fill="#fabc76" d="M 179.5,173.5 C 181.025,175.216 182.025,177.216 182.5,179.5C 181.99,188.508 177.323,192.008 168.5,190C 167.619,189.292 166.953,188.458 166.5,187.5C 171.969,190.794 176.469,189.794 180,184.5C 182.16,176.193 178.993,173.027 170.5,175C 169.347,176.883 167.681,177.716 165.5,177.5C 165.859,175.629 166.859,174.129 168.5,173C 172.188,172.55 175.854,172.717 179.5,173.5 Z"/></g>
<g><path style="opacity:1" fill="#e59c4a" d="M 41.5,149.5 C 41.6567,150.873 41.49,152.207 41,153.5C 39.1444,156.556 37.3111,159.556 35.5,162.5C 33.1631,165.882 30.8297,169.215 28.5,172.5C 27.9682,178.228 25.8015,183.228 22,187.5C 18.4991,199.679 14.4991,211.679 10,223.5C 9.50258,226.146 9.33591,228.813 9.5,231.5C 7.34621,238.237 5.84621,245.237 5,252.5C 3.83379,271.482 3.33379,290.482 3.5,309.5C -2.30745,255.051 8.52588,204.051 36,156.5C 37.6971,153.98 39.5305,151.647 41.5,149.5 Z"/></g>
<g><path style="opacity:1" fill="#f7a64c" d="M 310.5,201.5 C 309.081,202.451 307.415,202.784 305.5,202.5C 299.746,198.925 293.412,197.591 286.5,198.5C 286.5,225.5 286.5,252.5 286.5,279.5C 285.502,305.995 285.169,332.661 285.5,359.5C 284.833,345.837 284.5,332.004 284.5,318C 284.983,277.833 285.483,237.666 286,197.5C 290.748,196.365 295.581,196.198 300.5,197C 303.282,199.805 306.615,201.305 310.5,201.5 Z"/></g>
<g><path style="opacity:1" fill="#f37a24" d="M 442.5,127.5 C 445.852,130.695 448.685,134.362 451,138.5C 452.113,139.305 453.279,139.972 454.5,140.5C 454.523,142.927 455.023,145.26 456,147.5C 458.333,151.5 460.667,155.5 463,159.5C 463.333,161.167 463.667,162.833 464,164.5C 464.671,165.252 465.504,165.586 466.5,165.5C 467.638,170.091 468.471,174.757 469,179.5C 470.08,181.996 471.414,184.33 473,186.5C 473.663,194.335 476.163,201.335 480.5,207.5C 480.5,207.833 480.5,208.167 480.5,208.5C 481.01,213.211 481.844,217.878 483,222.5C 483.383,223.056 483.883,223.389 484.5,223.5C 484.5,224.167 484.5,224.833 484.5,225.5C 484.844,232.205 485.511,238.872 486.5,245.5C 485.883,245.389 485.383,245.056 485,244.5C 483.948,238.883 483.282,233.216 483,227.5C 482,225.167 481,222.833 480,220.5C 479.706,213.95 478.373,207.617 476,201.5C 475.586,201.043 475.086,200.709 474.5,200.5C 473.833,202.5 473.167,204.5 472.5,206.5C 472.167,206.333 471.833,206.167 471.5,206C 472.49,201.539 472.324,197.039 471,192.5C 469.745,191.789 468.579,190.956 467.5,190C 469.797,187.221 469.964,184.388 468,181.5C 467.71,183.044 467.044,184.377 466,185.5C 465.824,182.118 465.324,178.785 464.5,175.5C 463.065,174.176 462.065,172.51 461.5,170.5C 460.264,169.754 458.93,169.421 457.5,169.5C 457.214,167.723 456.547,166.056 455.5,164.5C 457.44,161.804 456.773,160.471 453.5,160.5C 453.339,157.472 454.006,154.639 455.5,152C 454.464,149.226 453.631,146.393 453,143.5C 451.713,140.855 449.547,139.855 446.5,140.5C 446.663,138.143 446.497,135.81 446,133.5C 443.545,132.257 442.378,130.257 442.5,127.5 Z"/></g>
<g><path style="opacity:1" fill="#f2922e" d="M 86.5,223.5 C 83.7363,215.837 81.2363,207.837 79,199.5C 78.0734,195.738 78.5734,192.238 80.5,189C 80.2645,188.127 79.9312,187.293 79.5,186.5C 74.1977,185.337 68.8643,185.171 63.5,186C 58.2092,188.226 58.2092,190.059 63.5,191.5C 63.7036,193.685 64.3702,195.685 65.5,197.5C 63.2729,196.599 62.2729,194.933 62.5,192.5C 61.1779,192.67 60.0113,192.337 59,191.5C 58.5045,189.527 58.3379,187.527 58.5,185.5C 66.4936,184.301 74.4936,184.301 82.5,185.5C 82.9867,186.446 83.3201,187.446 83.5,188.5C 82.2825,190.217 81.2825,192.05 80.5,194C 81.9495,199.975 83.6162,205.809 85.5,211.5C 86.4909,215.445 86.8242,219.445 86.5,223.5 Z"/></g>
<g><path style="opacity:0.4" fill="#df9255" d="M 480.5,208.5 C 482.278,213.272 483.611,218.272 484.5,223.5C 483.883,223.389 483.383,223.056 483,222.5C 481.844,217.878 481.01,213.211 480.5,208.5 Z"/></g>
<g><path style="opacity:1" fill="#f59939" d="M 422.5,187.5 C 424.948,187.085 426.281,188.085 426.5,190.5C 425.837,193.806 425.337,197.139 425,200.5C 424.683,202.301 424.016,202.634 423,201.5C 422.5,224.831 422.333,248.164 422.5,271.5C 422.83,287.675 422.496,303.675 421.5,319.5C 421.01,277.166 420.844,234.833 421,192.5C 423.509,191.347 424.009,189.68 422.5,187.5 Z"/></g>
<g><path style="opacity:1" fill="#f4a547" d="M 69.5,205.5 C 71.415,215.398 73.415,225.398 75.5,235.5C 74.8826,235.389 74.3826,235.056 74,234.5C 73.4187,229.842 72.252,225.342 70.5,221C 69.6311,215.871 69.2978,210.704 69.5,205.5 Z"/></g>
<g><path style="opacity:1" fill="#f5a94f" d="M 227.5,199.5 C 225.073,209.821 226.406,219.488 231.5,228.5C 230.292,227.766 228.959,227.433 227.5,227.5C 225.509,219.369 225.009,211.035 226,202.5C 226.232,201.263 226.732,200.263 227.5,199.5 Z"/></g>
<g><path style="opacity:1" fill="#fed28d" d="M 310.5,201.5 C 306.615,201.305 303.282,199.805 300.5,197C 295.581,196.198 290.748,196.365 286,197.5C 285.483,237.666 284.983,277.833 284.5,318C 284.5,332.004 284.833,345.837 285.5,359.5C 286.03,362.031 287.364,364.031 289.5,365.5C 283.193,366.664 276.859,366.831 270.5,366C 271.893,364.829 272.727,363.329 273,361.5C 273.5,333.169 273.667,304.835 273.5,276.5C 273.667,250.165 273.5,223.831 273,197.5C 272.5,197 272,196.5 271.5,196C 262.327,194.864 253.327,195.531 244.5,198C 239.979,201.695 237.979,206.529 238.5,212.5C 239.203,221.867 244.203,225.367 253.5,223C 257.137,218.674 261.47,217.674 266.5,220C 268.662,227.881 265.662,232.881 257.5,235C 250.766,235.829 244.099,235.496 237.5,234C 235.63,231.96 233.63,230.127 231.5,228.5C 226.406,219.488 225.073,209.821 227.5,199.5C 228.919,196.9 230.585,194.4 232.5,192C 236.861,189.488 241.194,186.988 245.5,184.5C 266.799,183.581 288.133,183.748 309.5,185C 310,185.5 310.5,186 311,186.5C 311.663,191.537 311.496,196.537 310.5,201.5 Z"/></g>
<g><path style="opacity:1" fill="#f39738" d="M 126.5,198.5 C 122.715,216.541 118.715,234.541 114.5,252.5C 113.139,254.85 111.806,257.184 110.5,259.5C 114.726,240.871 118.893,222.204 123,203.5C 123.697,201.416 124.864,199.749 126.5,198.5 Z"/></g>
<g><path style="opacity:1" fill="#f49a3a" d="M 273.5,276.5 C 273.167,276.5 272.833,276.5 272.5,276.5C 272.667,250.498 272.5,224.498 272,198.5C 264.246,197.353 256.413,197.186 248.5,198C 244.264,198.743 242.597,201.243 243.5,205.5C 242.5,205.5 241.5,205.5 240.5,205.5C 236.997,218.495 241.664,223.329 254.5,220C 258.135,216.695 262.469,215.695 267.5,217C 271.5,224.93 269.5,230.93 261.5,235C 253.718,237.981 245.718,238.314 237.5,236C 236.183,234.341 234.517,233.174 232.5,232.5C 231.571,231.311 231.238,229.978 231.5,228.5C 233.63,230.127 235.63,231.96 237.5,234C 244.099,235.496 250.766,235.829 257.5,235C 265.662,232.881 268.662,227.881 266.5,220C 261.47,217.674 257.137,218.674 253.5,223C 244.203,225.367 239.203,221.867 238.5,212.5C 237.979,206.529 239.979,201.695 244.5,198C 253.327,195.531 262.327,194.864 271.5,196C 272,196.5 272.5,197 273,197.5C 273.5,223.831 273.667,250.165 273.5,276.5 Z"/></g>
<g><path style="opacity:1" fill="#f58d22" d="M 183.5,212.5 C 171.237,210.005 158.904,209.338 146.5,210.5C 144.125,213.317 144.291,216.317 147,219.5C 147.831,257.002 147.664,294.336 146.5,331.5C 146.667,295.498 146.5,259.498 146,223.5C 143.736,219.111 142.736,214.444 143,209.5C 155.457,207.159 167.957,207.326 180.5,210C 181.942,210.377 182.942,211.21 183.5,212.5 Z"/></g>
<g><path style="opacity:1" fill="#fdd088" d="M 86.5,223.5 C 88.7409,238.792 92.0743,253.792 96.5,268.5C 97.1757,267.398 97.8423,266.398 98.5,265.5C 98.8872,269.817 97.5539,273.483 94.5,276.5C 93.8333,275.167 93.1667,273.833 92.5,272.5C 91.3096,274.453 89.9763,276.287 88.5,278C 89.7282,278.779 90.7282,279.779 91.5,281C 90.9072,283.792 90.5739,286.626 90.5,289.5C 90.2758,293.766 90.9425,297.099 92.5,299.5C 91.5777,320.739 91.2443,341.905 91.5,363C 92.8333,363.667 94.1667,363.667 95.5,363C 95.1667,362.667 94.8333,362.333 94.5,362C 96,361.167 97.1667,360 98,358.5C 98.3333,342.167 98.6667,325.833 99,309.5C 99.1499,303.919 99.9832,298.586 101.5,293.5C 100.482,315.491 100.315,337.491 101,359.5C 105.022,360.815 106.189,363.315 104.5,367C 98.1754,367.5 91.8421,367.666 85.5,367.5C 85.1459,364.579 86.1459,362.246 88.5,360.5C 89.8333,336.167 89.8333,311.833 88.5,287.5C 87.9877,283.111 86.6544,279.111 84.5,275.5C 81.9291,262.109 78.9291,248.775 75.5,235.5C 73.415,225.398 71.415,215.398 69.5,205.5C 67.9886,202.995 66.6553,200.328 65.5,197.5C 64.3702,195.685 63.7036,193.685 63.5,191.5C 58.2092,190.059 58.2092,188.226 63.5,186C 68.8643,185.171 74.1977,185.337 79.5,186.5C 79.9312,187.293 80.2645,188.127 80.5,189C 78.5734,192.238 78.0734,195.738 79,199.5C 81.2363,207.837 83.7363,215.837 86.5,223.5 Z"/></g>
<g><path style="opacity:0.882" fill="#df8845" d="M 484.5,225.5 C 489.459,248.158 490.626,271.158 488,294.5C 487.581,298.392 486.748,302.058 485.5,305.5C 486.558,291.69 487.225,277.856 487.5,264C 487.5,257.657 487.166,251.491 486.5,245.5C 485.511,238.872 484.844,232.205 484.5,225.5 Z"/></g>
<g><path style="opacity:1" fill="#f59431" d="M 203.5,223.5 C 206.563,225.051 209.229,227.218 211.5,230C 213.025,231.009 214.692,231.509 216.5,231.5C 217.783,234.01 218.783,236.677 219.5,239.5C 220.822,239.33 221.989,239.663 223,240.5C 223.497,242.81 223.663,245.143 223.5,247.5C 220.339,244.525 218.172,240.858 217,236.5C 211.997,232.664 207.497,228.33 203.5,223.5 Z"/></g>
<g><path style="opacity:1" fill="#f5912c" d="M 110.5,210.5 C 106.349,228.774 102.349,247.107 98.5,265.5C 97.8423,266.398 97.1757,267.398 96.5,268.5C 92.0743,253.792 88.7409,238.792 86.5,223.5C 89.1939,230.629 91.3606,237.962 93,245.5C 93.4709,243.754 94.1376,242.087 95,240.5C 95.6543,239.304 96.1543,239.304 96.5,240.5C 94.0552,247.418 93.8885,254.418 96,261.5C 98.0111,257.433 99.0111,253.1 99,248.5C 99.9147,247.672 100.581,246.672 101,245.5C 102.232,234.241 104.566,223.241 108,212.5C 108.708,211.619 109.542,210.953 110.5,210.5 Z"/></g>
<g><path style="opacity:1" fill="#ee7a13" d="M 22.5,260.5 C 29.1805,259.31 32.1805,261.977 31.5,268.5C 29.5122,268.827 27.5122,269.16 25.5,269.5C 23.626,269.61 22.126,268.944 21,267.5C 20.2825,268.451 19.4491,268.617 18.5,268C 17.2567,266.846 16.2567,265.512 15.5,264C 18.1777,263.328 20.511,262.161 22.5,260.5 Z"/></g>
<g><path style="opacity:0.937" fill="#f28d24" d="M 9.5,231.5 C 9.21614,234.777 9.54948,237.943 10.5,241C 8.95401,245.942 7.62068,250.942 6.5,256C 7.44802,256.483 8.44802,256.649 9.5,256.5C 9.77545,262.51 8.94212,262.843 7,257.5C 6.6621,262.547 5.99544,267.547 5,272.5C 3.99712,282.106 4.49712,291.606 6.5,301C 5.15247,302.555 4.4858,304.389 4.5,306.5C 5.09513,309.14 5.42847,311.807 5.5,314.5C 4.83333,313.167 4.16667,311.833 3.5,310.5C 3.5,310.167 3.5,309.833 3.5,309.5C 3.33379,290.482 3.83379,271.482 5,252.5C 5.84621,245.237 7.34621,238.237 9.5,231.5 Z"/></g>
<g><path style="opacity:1" fill="#db6704" d="M 324.5,272.5 C 326.833,272.5 329.167,272.5 331.5,272.5C 332.207,275.786 332.54,279.119 332.5,282.5C 323.177,284.504 320.51,281.17 324.5,272.5 Z"/></g>
<g><path style="opacity:1" fill="#f2902d" d="M 393.5,279.5 C 392.833,279.5 392.167,279.5 391.5,279.5C 387.613,275.895 382.946,273.895 377.5,273.5C 369.12,274.308 361.12,276.308 353.5,279.5C 353.908,278.357 354.575,277.357 355.5,276.5C 361.73,273.811 368.23,272.478 375,272.5C 382.699,271.441 388.866,273.775 393.5,279.5 Z"/></g>
<g><path style="opacity:1" fill="#f7a94c" d="M 407.5,187.5 C 405.934,190.24 406.434,192.573 409,194.5C 409.5,229.498 409.667,264.498 409.5,299.5C 409.167,299.5 408.833,299.5 408.5,299.5C 408.667,265.832 408.5,232.165 408,198.5C 407.358,195.723 406.524,193.056 405.5,190.5C 405.64,188.97 406.307,187.97 407.5,187.5 Z"/></g>
<g><path style="opacity:1" fill="#fdb660" d="M 391.5,279.5 C 392.167,279.5 392.833,279.5 393.5,279.5C 394.815,280.667 395.481,282.167 395.5,284C 395.224,290.483 392.224,292.65 386.5,290.5C 391.51,291.326 393.843,289.159 393.5,284C 392.926,282.393 392.26,280.893 391.5,279.5 Z"/></g>
<g><path style="opacity:1" fill="#fdd290" d="M 422.5,187.5 C 424.009,189.68 423.509,191.347 421,192.5C 420.844,234.833 421.01,277.166 421.5,319.5C 420.351,329.571 417.685,339.238 413.5,348.5C 411.11,350.734 409.276,353.401 408,356.5C 407.329,357.252 406.496,357.586 405.5,357.5C 403.54,358.138 401.707,358.138 400,357.5C 397.833,358.333 396.333,359.833 395.5,362C 386.357,363.601 377.357,363.934 368.5,363C 368.167,362.667 367.833,362.333 367.5,362C 370.043,361.86 372.377,361.194 374.5,360C 372.22,359.767 370.22,358.934 368.5,357.5C 366.802,358.681 365.135,358.681 363.5,357.5C 363.865,356.098 364.699,355.098 366,354.5C 368.098,356.049 370.431,357.049 373,357.5C 375.733,356.913 378.566,356.913 381.5,357.5C 383.167,357.167 384.833,356.833 386.5,356.5C 389.667,354.75 392.667,352.75 395.5,350.5C 397.555,348.445 399.221,346.112 400.5,343.5C 404.368,338.777 407.202,333.443 409,327.5C 409.5,318.173 409.666,308.839 409.5,299.5C 409.667,264.498 409.5,229.498 409,194.5C 406.434,192.573 405.934,190.24 407.5,187.5C 412.301,187.127 417.301,187.127 422.5,187.5 Z"/></g>
<g><path style="opacity:1" fill="#fdd28f" d="M 111.5,186.5 C 116.844,186.334 122.177,186.501 127.5,187C 129.107,188.049 129.773,189.549 129.5,191.5C 127.759,193.395 126.759,195.728 126.5,198.5C 124.864,199.749 123.697,201.416 123,203.5C 118.893,222.204 114.726,240.871 110.5,259.5C 110.5,260.833 110.5,262.167 110.5,263.5C 106.66,270.859 104.66,278.859 104.5,287.5C 103.5,287.5 102.5,287.5 101.5,287.5C 101.5,289.5 101.5,291.5 101.5,293.5C 99.9832,298.586 99.1499,303.919 99,309.5C 98.6667,325.833 98.3333,342.167 98,358.5C 97.1667,360 96,361.167 94.5,362C 94.8333,362.333 95.1667,362.667 95.5,363C 94.1667,363.667 92.8333,363.667 91.5,363C 91.2443,341.905 91.5777,320.739 92.5,299.5C 90.9425,297.099 90.2758,293.766 90.5,289.5C 90.5739,286.626 90.9072,283.792 91.5,281C 90.7282,279.779 89.7282,278.779 88.5,278C 89.9763,276.287 91.3096,274.453 92.5,272.5C 93.1667,273.833 93.8333,275.167 94.5,276.5C 97.5539,273.483 98.8872,269.817 98.5,265.5C 102.349,247.107 106.349,228.774 110.5,210.5C 110.5,209.5 110.5,208.5 110.5,207.5C 113.039,201.206 113.039,194.873 110.5,188.5C 110.543,187.584 110.876,186.917 111.5,186.5 Z"/></g>
<g><path style="opacity:1" fill="#e66106" d="M 431.5,290.5 C 434.777,290.216 437.943,290.549 441,291.5C 446.087,302.416 442.753,306.416 431,303.5C 428.753,300.508 428.087,297.175 429,293.5C 430.417,292.922 431.25,291.922 431.5,290.5 Z"/></g>
<g><path style="opacity:1" fill="#f58f2a" d="M 286.5,279.5 C 286.333,305.502 286.5,331.502 287,357.5C 294.743,361.716 295.243,366.382 288.5,371.5C 285.388,370.875 282.221,370.541 279,370.5C 275.724,370.558 272.724,371.224 270,372.5C 269.517,371.552 269.351,370.552 269.5,369.5C 268.5,369.5 267.5,369.5 266.5,369.5C 266.336,366.813 266.503,364.146 267,361.5C 267.671,360.748 268.504,360.414 269.5,360.5C 268.854,362.156 268.187,363.823 267.5,365.5C 267.543,366.416 267.876,367.083 268.5,367.5C 276.167,367.5 283.833,367.5 291.5,367.5C 290.603,364.039 288.603,361.373 285.5,359.5C 285.169,332.661 285.502,305.995 286.5,279.5 Z"/></g>
<g><path style="opacity:1" fill="#f3942f" d="M 364.5,288.5 C 362.021,291.318 359.021,293.318 355.5,294.5C 355.5,295.5 355.5,296.5 355.5,297.5C 356.5,297.5 357.5,297.5 358.5,297.5C 358.542,299.849 357.375,301.182 355,301.5C 353.174,300.99 353.007,300.156 354.5,299C 351.564,299.893 349.064,301.726 347,304.5C 346.751,307.177 345.751,309.51 344,311.5C 343.175,319.629 343.675,327.629 345.5,335.5C 340.794,326.547 340.294,317.214 344,307.5C 346.435,300.066 351.268,294.899 358.5,292C 359.45,289.09 361.45,287.923 364.5,288.5 Z"/></g>
<g><path style="opacity:1" fill="#febe6a" d="M 272.5,276.5 C 272.833,276.5 273.167,276.5 273.5,276.5C 273.667,304.835 273.5,333.169 273,361.5C 272.727,363.329 271.893,364.829 270.5,366C 276.859,366.831 283.193,366.664 289.5,365.5C 287.364,364.031 286.03,362.031 285.5,359.5C 288.603,361.373 290.603,364.039 291.5,367.5C 283.833,367.5 276.167,367.5 268.5,367.5C 269.352,364.777 270.519,362.11 272,359.5C 272.5,339.503 272.667,319.503 272.5,299.5C 272.5,291.833 272.5,284.167 272.5,276.5 Z"/></g>
<g><path style="opacity:1" fill="#f69938" d="M 343.5,287.5 C 340.766,290.625 338.266,293.958 336,297.5C 334.648,302.677 332.981,307.677 331,312.5C 330.523,320.178 330.69,327.845 331.5,335.5C 330.852,333.502 330.019,331.502 329,329.5C 327.947,318.955 328.614,308.621 331,298.5C 334.941,297.226 337.608,294.559 339,290.5C 340.129,288.859 341.629,287.859 343.5,287.5 Z"/></g>
<g><path style="opacity:1" fill="#fed18a" d="M 183.5,212.5 C 190.115,216.081 196.782,219.748 203.5,223.5C 207.497,228.33 211.997,232.664 217,236.5C 218.172,240.858 220.339,244.525 223.5,247.5C 227.951,258.381 229.451,269.714 228,281.5C 226.246,288.735 224.579,296.069 223,303.5C 212.242,327.225 193.742,340.059 167.5,342C 160.167,342.667 152.833,342.667 145.5,342C 142.659,338.481 143.493,335.981 148,334.5C 149.421,296.176 149.754,257.843 149,219.5C 147.953,217.238 146.787,215.071 145.5,213C 145.743,212.098 146.077,211.265 146.5,210.5C 158.904,209.338 171.237,210.005 183.5,212.5 Z"/></g>
<g><path style="opacity:1" fill="#f4a249" d="M 202.5,239.5 C 199.203,237.217 195.869,234.884 192.5,232.5C 191.614,231.675 191.281,230.675 191.5,229.5C 188.654,229.97 186.321,229.137 184.5,227C 177.057,224.389 169.391,223.222 161.5,223.5C 161.333,256.835 161.5,290.168 162,323.5C 162.251,325.433 162.751,327.266 163.5,329C 166.817,329.498 170.15,329.665 173.5,329.5C 170.024,330.643 166.358,330.81 162.5,330C 162,329.5 161.5,329 161,328.5C 160.5,293.168 160.333,257.835 160.5,222.5C 171.426,221.322 181.759,223.156 191.5,228C 195.732,231.303 199.399,235.136 202.5,239.5 Z"/></g>
<g><path style="opacity:1" fill="#fc8b1a" d="M 202.5,239.5 C 204.017,239.511 205.184,240.177 206,241.5C 207.604,245.048 209.437,248.382 211.5,251.5C 212.62,255.832 213.787,260.166 215,264.5C 215.541,272.182 215.374,279.848 214.5,287.5C 212.904,297.916 208.904,307.249 202.5,315.5C 198.646,315.594 195.979,317.428 194.5,321C 190.87,321.469 187.87,322.969 185.5,325.5C 182.627,326.775 179.627,327.608 176.5,328C 175.944,328.383 175.611,328.883 175.5,329.5C 174.833,329.5 174.167,329.5 173.5,329.5C 170.15,329.665 166.817,329.498 163.5,329C 162.751,327.266 162.251,325.433 162,323.5C 161.5,290.168 161.333,256.835 161.5,223.5C 169.391,223.222 177.057,224.389 184.5,227C 186.321,229.137 188.654,229.97 191.5,229.5C 191.281,230.675 191.614,231.675 192.5,232.5C 195.869,234.884 199.203,237.217 202.5,239.5 Z"/></g>
<g><path style="opacity:1" fill="#fdd490" d="M 153.5,219.5 C 154.978,219.238 156.311,219.571 157.5,220.5C 158.123,223.445 158.456,226.445 158.5,229.5C 159.414,261.869 159.414,294.369 158.5,327C 159.535,328.838 160.535,330.671 161.5,332.5C 160.99,334.088 159.99,335.255 158.5,336C 164.514,337.172 170.514,337.338 176.5,336.5C 175.675,335.614 174.675,335.281 173.5,335.5C 173.5,334.5 173.5,333.5 173.5,332.5C 176.846,331.964 180.18,331.297 183.5,330.5C 185.824,332.154 188.158,333.821 190.5,335.5C 189.667,335.833 188.833,336.167 188,336.5C 175.149,338.928 162.316,340.428 149.5,341C 148.009,338.978 148.342,337.312 150.5,336C 149.24,334.186 149.24,332.353 150.5,330.5C 151.425,331.641 152.259,331.641 153,330.5C 153.832,321.814 153.665,313.147 152.5,304.5C 151.672,309.132 151.172,313.798 151,318.5C 150.333,294.833 150.333,271.167 151,247.5C 152.131,245.275 152.964,242.942 153.5,240.5C 152.651,235.361 151.985,230.195 151.5,225C 151.698,222.879 152.364,221.046 153.5,219.5 Z"/></g>
<g><path style="opacity:0.29" fill="#e6924d" d="M 485.5,305.5 C 483.72,315.971 480.72,325.971 476.5,335.5C 479.204,325.339 482.204,315.339 485.5,305.5 Z"/></g>
<g><path style="opacity:1" fill="#f9781b" d="M 408.5,303.5 C 408.666,311.174 408.5,318.841 408,326.5C 405.348,332.119 402.848,337.786 400.5,343.5C 399.221,346.112 397.555,348.445 395.5,350.5C 385.279,355.446 374.945,355.779 364.5,351.5C 366.791,347.487 369.624,343.82 373,340.5C 372.081,337.716 371.581,334.716 371.5,331.5C 373.912,331.331 376.079,331.997 378,333.5C 379.811,332.922 381.645,332.422 383.5,332C 387.642,326.923 392.142,322.089 397,317.5C 399.466,314.872 401.299,311.872 402.5,308.5C 403.167,308.833 403.833,309.167 404.5,309.5C 405.303,306.978 406.636,304.978 408.5,303.5 Z"/></g>
<g><path style="opacity:1" fill="#f49532" d="M 110.5,263.5 C 107.51,276.667 105.01,290.001 103,303.5C 102.333,321.5 102.333,339.5 103,357.5C 105.154,359.648 106.654,362.148 107.5,365C 107.245,366.326 106.578,367.326 105.5,368C 102,368.167 98.5,368.333 95,368.5C 91.0688,368.456 87.4022,367.789 84,366.5C 83.3333,364.833 83.3333,363.167 84,361.5C 86.1101,358.508 87.4434,355.175 88,351.5C 88.6667,335.5 88.6667,319.5 88,303.5C 87.4222,294.043 86.2555,284.71 84.5,275.5C 86.6544,279.111 87.9877,283.111 88.5,287.5C 89.8333,311.833 89.8333,336.167 88.5,360.5C 86.1459,362.246 85.1459,364.579 85.5,367.5C 91.8421,367.666 98.1754,367.5 104.5,367C 106.189,363.315 105.022,360.815 101,359.5C 100.315,337.491 100.482,315.491 101.5,293.5C 101.5,291.5 101.5,289.5 101.5,287.5C 102.5,287.5 103.5,287.5 104.5,287.5C 104.66,278.859 106.66,270.859 110.5,263.5 Z"/></g>
<g><path style="opacity:0.482" fill="#e59e4e" d="M 3.5,310.5 C 4.16667,311.833 4.83333,313.167 5.5,314.5C 6.11465,320.189 6.94798,325.856 8,331.5C 10.0465,337.794 11.8798,344.128 13.5,350.5C 7.519,337.959 4.18567,324.625 3.5,310.5 Z"/></g>
<g><path style="opacity:1" fill="#f09939" d="M 272.5,299.5 C 272.667,319.503 272.5,339.503 272,359.5C 270.519,362.11 269.352,364.777 268.5,367.5C 267.876,367.083 267.543,366.416 267.5,365.5C 268.187,363.823 268.854,362.156 269.5,360.5C 269.783,359.711 270.283,359.044 271,358.5C 271.168,338.662 271.668,318.996 272.5,299.5 Z"/></g>
<g><path style="opacity:1" fill="#eb852f" d="M 408.5,299.5 C 408.833,299.5 409.167,299.5 409.5,299.5C 409.666,308.839 409.5,318.173 409,327.5C 407.202,333.443 404.368,338.777 400.5,343.5C 402.848,337.786 405.348,332.119 408,326.5C 408.5,318.841 408.666,311.174 408.5,303.5C 408.5,302.167 408.5,300.833 408.5,299.5 Z"/></g>
<g><path style="opacity:1" fill="#db6602" d="M 256.5,333.5 C 262.862,332.89 264.862,335.557 262.5,341.5C 256.625,341.751 254.625,339.084 256.5,333.5 Z"/></g>
<g><path style="opacity:1" fill="#ee8632" d="M 422.5,271.5 C 423.434,272.568 423.768,273.901 423.5,275.5C 423.667,294.503 423.5,313.503 423,332.5C 422.487,333.527 421.987,334.527 421.5,335.5C 419.055,340.074 416.388,344.407 413.5,348.5C 417.685,339.238 420.351,329.571 421.5,319.5C 422.496,303.675 422.83,287.675 422.5,271.5 Z"/></g>
<g><path style="opacity:1" fill="#f39734" d="M 345.5,335.5 C 347.929,336.265 349.262,337.931 349.5,340.5C 354.633,342.41 358.633,345.743 361.5,350.5C 359.692,350.509 358.025,350.009 356.5,349C 353.657,345.825 350.49,342.991 347,340.5C 346.392,338.846 345.892,337.179 345.5,335.5 Z"/></g>
<g><path style="opacity:1" fill="#f8a149" d="M 331.5,335.5 C 334.539,340.265 337.205,345.265 339.5,350.5C 334.634,346.644 331.967,341.644 331.5,335.5 Z"/></g>
<g><path style="opacity:1" fill="#f5a043" d="M 146.5,210.5 C 146.077,211.265 145.743,212.098 145.5,213C 146.787,215.071 147.953,217.238 149,219.5C 149.754,257.843 149.421,296.176 148,334.5C 143.493,335.981 142.659,338.481 145.5,342C 152.833,342.667 160.167,342.667 167.5,342C 193.742,340.059 212.242,327.225 223,303.5C 224.579,296.069 226.246,288.735 228,281.5C 229.451,269.714 227.951,258.381 223.5,247.5C 226.063,249.612 227.896,252.279 229,255.5C 231.866,275.927 229.366,295.594 221.5,314.5C 220.252,315.04 219.085,315.707 218,316.5C 212.549,326.78 204.383,334.114 193.5,338.5C 190.334,339.234 187.334,340.4 184.5,342C 170.864,343.478 157.198,343.812 143.5,343C 142.892,341.769 142.559,340.436 142.5,339C 143.606,336.316 144.94,333.816 146.5,331.5C 147.664,294.336 147.831,257.002 147,219.5C 144.291,216.317 144.125,213.317 146.5,210.5 Z"/></g>
<g><path style="opacity:1" fill="#ef9a3b" d="M 202.5,315.5 C 195.043,323.062 186.043,327.729 175.5,329.5C 175.611,328.883 175.944,328.383 176.5,328C 179.627,327.608 182.627,326.775 185.5,325.5C 187.87,322.969 190.87,321.469 194.5,321C 195.979,317.428 198.646,315.594 202.5,315.5 Z"/></g>
<g><path style="opacity:1" fill="#f09a39" d="M 211.5,251.5 C 212.931,252.903 214.098,254.569 215,256.5C 217.144,264.035 217.81,271.701 217,279.5C 216.057,282.251 215.224,284.917 214.5,287.5C 215.374,279.848 215.541,272.182 215,264.5C 213.787,260.166 212.62,255.832 211.5,251.5 Z"/></g>
<g><path style="opacity:0.882" fill="#e9883f" d="M 476.5,335.5 C 474.678,341.136 472.345,346.469 469.5,351.5C 469.804,348.478 470.304,345.478 471,342.5C 472.948,340.15 474.781,337.816 476.5,335.5 Z"/></g>
<g><path style="opacity:1" fill="#f47c25" d="M 421.5,335.5 C 420.714,340.023 419.214,344.357 417,348.5C 413.58,351.789 411.08,355.789 409.5,360.5C 412.342,361.004 413.675,362.671 413.5,365.5C 412.022,365.762 410.689,365.429 409.5,364.5C 407.351,360.589 405.351,360.756 403.5,365C 400.854,365.497 398.187,365.664 395.5,365.5C 398.79,362.887 402.123,360.221 405.5,357.5C 406.496,357.586 407.329,357.252 408,356.5C 409.276,353.401 411.11,350.734 413.5,348.5C 416.388,344.407 419.055,340.074 421.5,335.5 Z"/></g>
<g><path style="opacity:1" fill="#fdd18b" d="M 391.5,279.5 C 392.26,280.893 392.926,282.393 393.5,284C 393.843,289.159 391.51,291.326 386.5,290.5C 384.737,289.178 383.07,287.678 381.5,286C 379.833,285.833 378.167,285.667 376.5,285.5C 372.118,285.503 368.118,286.503 364.5,288.5C 361.45,287.923 359.45,289.09 358.5,292C 351.268,294.899 346.435,300.066 344,307.5C 340.294,317.214 340.794,326.547 345.5,335.5C 345.892,337.179 346.392,338.846 347,340.5C 350.49,342.991 353.657,345.825 356.5,349C 358.025,350.009 359.692,350.509 361.5,350.5C 362.391,351.11 363.391,351.443 364.5,351.5C 374.945,355.779 385.279,355.446 395.5,350.5C 392.667,352.75 389.667,354.75 386.5,356.5C 384.833,356.833 383.167,357.167 381.5,357.5C 378.566,356.913 375.733,356.913 373,357.5C 370.431,357.049 368.098,356.049 366,354.5C 364.699,355.098 363.865,356.098 363.5,357.5C 365.135,358.681 366.802,358.681 368.5,357.5C 370.22,358.934 372.22,359.767 374.5,360C 372.377,361.194 370.043,361.86 367.5,362C 367.833,362.333 368.167,362.667 368.5,363C 377.357,363.934 386.357,363.601 395.5,362C 396.333,359.833 397.833,358.333 400,357.5C 401.707,358.138 403.54,358.138 405.5,357.5C 402.123,360.221 398.79,362.887 395.5,365.5C 391.466,365.505 387.466,365.838 383.5,366.5C 378.156,366.666 372.823,366.499 367.5,366C 362.846,364.393 358.18,362.893 353.5,361.5C 351.745,360.928 350.078,360.094 348.5,359C 345.631,355.962 342.631,353.129 339.5,350.5C 337.205,345.265 334.539,340.265 331.5,335.5C 330.69,327.845 330.523,320.178 331,312.5C 332.981,307.677 334.648,302.677 336,297.5C 338.266,293.958 340.766,290.625 343.5,287.5C 346.873,284.822 350.206,282.156 353.5,279.5C 361.12,276.308 369.12,274.308 377.5,273.5C 382.946,273.895 387.613,275.895 391.5,279.5 Z"/></g>
<g><path style="opacity:1" fill="#d96202" d="M 332.5,363.5 C 333.087,369.801 330.421,371.801 324.5,369.5C 322.891,361.775 325.558,359.775 332.5,363.5 Z"/></g>
<g><path style="opacity:1" fill="#f59033" d="M 339.5,350.5 C 342.631,353.129 345.631,355.962 348.5,359C 350.078,360.094 351.745,360.928 353.5,361.5C 355.612,363.206 357.945,364.539 360.5,365.5C 355.476,363.582 350.143,362.582 344.5,362.5C 344.5,362.167 344.5,361.833 344.5,361.5C 343.279,357.586 341.612,353.92 339.5,350.5 Z"/></g>
<g><path style="opacity:1" fill="#f9a95d" d="M 353.5,361.5 C 358.18,362.893 362.846,364.393 367.5,366C 372.823,366.499 378.156,366.666 383.5,366.5C 380.518,367.165 377.352,367.498 374,367.5C 369.271,367.69 364.771,367.024 360.5,365.5C 357.945,364.539 355.612,363.206 353.5,361.5 Z"/></g>
<g><path style="opacity:1" fill="#e46e09" d="M 125.5,353.5 C 133.898,352.072 137.398,355.406 136,363.5C 132.067,366.099 128.067,366.099 124,363.5C 123.232,359.925 123.732,356.592 125.5,353.5 Z"/></g>
<g><path style="opacity:1" fill="#ee8336" d="M 469.5,351.5 C 462.59,368.713 453.257,384.38 441.5,398.5C 443.323,395.837 444.323,392.837 444.5,389.5C 445.822,389.67 446.989,389.337 448,388.5C 448.278,384.806 448.278,381.139 448,377.5C 449.241,379.421 450.741,379.754 452.5,378.5C 454.385,374.979 455.719,371.312 456.5,367.5C 457.833,367.5 459.167,367.5 460.5,367.5C 459.923,364.45 461.09,362.45 464,361.5C 465.118,357.581 466.952,354.248 469.5,351.5 Z"/></g>
<g><path style="opacity:0.392" fill="#e99e4f" d="M 13.5,350.5 C 15.5,353.5 17.5,356.5 19.5,359.5C 24.9139,370.662 30.5806,381.662 36.5,392.5C 31.1914,385.235 26.358,377.568 22,369.5C 18.6058,363.381 15.7725,357.048 13.5,350.5 Z"/></g>
<g><path style="opacity:1" fill="#eb893e" d="M 503.5,370.5 C 497.22,375.513 496.887,381.013 502.5,387C 504.134,387.494 505.801,387.66 507.5,387.5C 500.913,388.641 496.913,385.641 495.5,378.5C 496.551,374.116 499.217,371.449 503.5,370.5 Z"/></g>
<g><path style="opacity:1" fill="#e78339" d="M 508.5,370.5 C 513.569,374.1 514.736,378.767 512,384.5C 510.871,386.141 509.371,387.141 507.5,387.5C 509.219,384.554 510.553,381.387 511.5,378C 510.702,375.386 509.702,372.886 508.5,370.5 Z"/></g>
<g><path style="opacity:1" fill="#f97820" d="M 508.5,370.5 C 509.702,372.886 510.702,375.386 511.5,378C 510.553,381.387 509.219,384.554 507.5,387.5C 505.801,387.66 504.134,387.494 502.5,387C 496.887,381.013 497.22,375.513 503.5,370.5C 505.05,369.28 506.716,369.28 508.5,370.5 Z"/></g>
<g><path style="opacity:1" fill="#e35e03" d="M 387.5,385.5 C 395.46,384.077 399.127,387.41 398.5,395.5C 397.5,395.5 396.5,395.5 395.5,395.5C 395.5,396.5 395.5,397.5 395.5,398.5C 385.533,398.845 382.866,394.512 387.5,385.5 Z"/></g>
<g><path style="opacity:1" fill="#f77a17" d="M 344.5,362.5 C 350.143,362.582 355.476,363.582 360.5,365.5C 364.771,367.024 369.271,367.69 374,367.5C 377.352,367.498 380.518,367.165 383.5,366.5C 387.466,365.838 391.466,365.505 395.5,365.5C 392.83,367.259 389.997,368.925 387,370.5C 384.046,370.406 383.879,369.906 386.5,369C 376.432,368.895 366.432,368.061 356.5,366.5C 352.324,366.181 349.657,368.014 348.5,372C 343.994,372.028 340.327,373.695 337.5,377C 333.02,377.46 329.52,379.627 327,383.5C 326.667,383.167 326.333,382.833 326,382.5C 324.266,383.249 322.433,383.749 320.5,384C 319.833,385.667 319.167,387.333 318.5,389C 317.451,389.492 316.451,389.326 315.5,388.5C 311.92,390.458 308.253,392.125 304.5,393.5C 304.66,395.199 304.494,396.866 304,398.5C 301.583,401.083 298.749,403.083 295.5,404.5C 290.972,404.972 286.639,405.972 282.5,407.5C 282.167,406.833 281.833,406.167 281.5,405.5C 277.719,407.951 273.719,409.951 269.5,411.5C 268.914,411.291 268.414,410.957 268,410.5C 267.082,412.632 265.749,413.299 264,412.5C 261.305,413.933 258.471,414.933 255.5,415.5C 255.67,416.822 255.337,417.989 254.5,419C 249.42,418.956 244.92,420.456 241,423.5C 239.814,421.323 237.981,420.323 235.5,420.5C 241.105,417.759 247.105,415.926 253.5,415C 254.551,413.615 255.884,412.615 257.5,412C 261.53,410.935 265.53,409.768 269.5,408.5C 274.77,405.091 280.437,402.424 286.5,400.5C 288.598,401.484 290.598,401.151 292.5,399.5C 298.551,395.438 304.218,390.938 309.5,386C 313.194,384.802 316.528,382.968 319.5,380.5C 322.556,379.804 325.556,378.97 328.5,378C 329.102,375.964 330.102,374.13 331.5,372.5C 328.783,372.026 326.45,371.026 324.5,369.5C 330.421,371.801 333.087,369.801 332.5,363.5C 333.943,364.335 334.943,365.668 335.5,367.5C 337.326,367.08 339.326,367.08 341.5,367.5C 341.5,366.5 341.5,365.5 341.5,364.5C 343.179,364.715 344.179,364.048 344.5,362.5 Z"/></g>
<g><path style="opacity:0.922" fill="#eb9254" d="M 489.5,397.5 C 482.738,395.126 475.738,394.126 468.5,394.5C 474.79,391.721 481.123,391.887 487.5,395C 488.381,395.708 489.047,396.542 489.5,397.5 Z"/></g>
<g><path style="opacity:1" fill="#fa771d" d="M 468.5,394.5 C 475.738,394.126 482.738,395.126 489.5,397.5C 490.933,399.558 491.6,401.892 491.5,404.5C 492.822,404.33 493.989,404.663 495,405.5C 495.182,408.226 495.682,410.893 496.5,413.5C 498.105,412.413 498.771,413.079 498.5,415.5C 498.943,417.985 499.276,420.485 499.5,423C 498.383,426.756 497.383,430.589 496.5,434.5C 488.81,446.568 478.81,449.068 466.5,442C 464.255,439.269 462.255,436.436 460.5,433.5C 459.768,427.25 458.434,421.25 456.5,415.5C 456.5,414.5 456.5,413.5 456.5,412.5C 460.334,406.614 464.334,400.614 468.5,394.5 Z"/></g>
<g><path style="opacity:1" fill="#f48f25" d="M 19.5,359.5 C 20.8853,360.614 22.3853,361.614 24,362.5C 26.0197,367.537 28.5197,372.37 31.5,377C 32.2335,378.766 32.5668,380.599 32.5,382.5C 33.5,382.5 34.5,382.5 35.5,382.5C 36.1121,386.044 37.2788,389.377 39,392.5C 40.7743,394.94 43.1076,396.606 46,397.5C 48.3655,401.221 49.8655,405.221 50.5,409.5C 46.6312,405.764 43.1312,401.43 40,396.5C 39.3292,395.748 38.4959,395.414 37.5,395.5C 36.8902,394.609 36.5569,393.609 36.5,392.5C 30.5806,381.662 24.9139,370.662 19.5,359.5 Z"/></g>
<g><path style="opacity:1" fill="#d86202" d="M 133.5,401.5 C 135.722,401.178 137.556,401.845 139,403.5C 141.183,410.651 138.85,412.984 132,410.5C 130.748,407.986 130.248,405.32 130.5,402.5C 131.791,402.737 132.791,402.404 133.5,401.5 Z"/></g>
<g><path style="opacity:1" fill="#f08e46" d="M 468.5,394.5 C 464.334,400.614 460.334,406.614 456.5,412.5C 456.539,403.73 460.539,397.73 468.5,394.5 Z"/></g>
<g><path style="opacity:1" fill="#fb841a" d="M 344.5,361.5 C 344.5,361.833 344.5,362.167 344.5,362.5C 344.179,364.048 343.179,364.715 341.5,364.5C 341.5,365.5 341.5,366.5 341.5,367.5C 339.326,367.08 337.326,367.08 335.5,367.5C 334.943,365.668 333.943,364.335 332.5,363.5C 325.558,359.775 322.891,361.775 324.5,369.5C 326.45,371.026 328.783,372.026 331.5,372.5C 330.102,374.13 329.102,375.964 328.5,378C 325.556,378.97 322.556,379.804 319.5,380.5C 316.528,382.968 313.194,384.802 309.5,386C 304.218,390.938 298.551,395.438 292.5,399.5C 290.598,401.151 288.598,401.484 286.5,400.5C 280.437,402.424 274.77,405.091 269.5,408.5C 265.53,409.768 261.53,410.935 257.5,412C 255.884,412.615 254.551,413.615 253.5,415C 247.105,415.926 241.105,417.759 235.5,420.5C 234.417,420.461 233.417,420.127 232.5,419.5C 227.013,421.03 221.513,422.697 216,424.5C 203.34,424.947 190.507,426.614 177.5,429.5C 171.954,426.145 167.288,426.978 163.5,432C 143.348,434.677 123.181,436.844 103,438.5C 100.931,437.736 98.764,437.236 96.5,437C 95.5939,435.301 95.2606,433.467 95.5,431.5C 96.4345,432.568 96.7678,433.901 96.5,435.5C 110.243,435.941 124.243,435.441 138.5,434C 146.631,432.728 154.631,431.062 162.5,429C 164.847,428.154 166.68,426.654 168,424.5C 169.742,425.253 171.742,425.253 174,424.5C 177.77,427.997 181.603,428.163 185.5,425C 188.972,425.057 191.972,424.057 194.5,422C 206.457,422.004 218.124,420.504 229.5,417.5C 229.5,416.5 229.5,415.5 229.5,414.5C 227.738,414.643 226.071,414.309 224.5,413.5C 223.479,412.998 223.312,412.332 224,411.5C 227.446,412.721 230.946,412.721 234.5,411.5C 236.055,411.722 237.389,412.389 238.5,413.5C 239.216,412.689 240.05,412.022 241,411.5C 242.422,412.205 243.755,412.539 245,412.5C 245.5,412 246,411.5 246.5,411C 244.833,410.667 243.167,410.333 241.5,410C 245.423,409.207 249.256,409.374 253,410.5C 260.694,407.153 268.861,403.986 277.5,401C 271.793,399.725 270.459,396.725 273.5,392C 277.701,391.078 281.701,391.578 285.5,393.5C 286.5,392.167 287.5,392.167 288.5,393.5C 288.489,392.559 288.989,391.892 290,391.5C 291.766,392.233 293.599,392.567 295.5,392.5C 295.64,390.876 294.973,389.71 293.5,389C 295.614,387.482 297.947,387.149 300.5,388C 299.304,388.654 299.304,389.154 300.5,389.5C 301.478,389.023 302.311,388.357 303,387.5C 303.333,387.833 303.667,388.167 304,388.5C 309.509,385.055 314.509,381.055 319,376.5C 319.333,377.167 319.667,377.833 320,378.5C 321.78,377.406 323.614,376.406 325.5,375.5C 324.528,373.695 323.361,372.028 322,370.5C 321.667,370.833 321.333,371.167 321,371.5C 318.855,369.105 319.022,366.938 321.5,365C 321.043,364.586 320.709,364.086 320.5,363.5C 324.806,360.051 329.806,358.551 335.5,359C 339.911,355.622 340.411,356.122 337,360.5C 335.68,360.799 334.18,360.966 332.5,361C 333.891,362.02 335.391,362.853 337,363.5C 339.106,361.709 341.606,361.042 344.5,361.5 Z"/></g>
<g><path style="opacity:0.137" fill="#e48d4d" d="M 441.5,399.5 C 435.842,406.491 429.842,413.157 423.5,419.5C 424.787,417.195 426.12,414.862 427.5,412.5C 432.233,408.095 436.9,403.762 441.5,399.5 Z"/></g>
<g><path style="opacity:1" fill="#f17f2f" d="M 489.5,397.5 C 495.78,401.361 499.614,407.027 501,414.5C 502.061,420.724 501.394,426.724 499,432.5C 498.292,433.381 497.458,434.047 496.5,434.5C 497.383,430.589 498.383,426.756 499.5,423C 499.276,420.485 498.943,417.985 498.5,415.5C 498.771,413.079 498.105,412.413 496.5,413.5C 495.682,410.893 495.182,408.226 495,405.5C 493.989,404.663 492.822,404.33 491.5,404.5C 491.6,401.892 490.933,399.558 489.5,397.5 Z"/></g>
<g><path style="opacity:1" fill="#f09537" d="M 37.5,395.5 C 38.4959,395.414 39.3292,395.748 40,396.5C 43.1312,401.43 46.6312,405.764 50.5,409.5C 52.1016,411.074 54.1016,411.741 56.5,411.5C 56.1058,414.857 57.4391,417.19 60.5,418.5C 61.0601,420.854 61.7267,423.187 62.5,425.5C 66.6116,427.275 69.2783,430.275 70.5,434.5C 64.2073,430.042 58.7073,424.708 54,418.5C 48.2812,410.955 42.7812,403.288 37.5,395.5 Z"/></g>
<g><path style="opacity:0.18" fill="#e68f4d" d="M 456.5,415.5 C 458.434,421.25 459.768,427.25 460.5,433.5C 457.895,427.915 456.562,421.915 456.5,415.5 Z"/></g>
<g><path style="opacity:1" fill="#f08237" d="M 423.5,419.5 C 419.625,424.111 415.292,428.278 410.5,432C 408.595,433.421 406.595,434.588 404.5,435.5C 404.714,433.856 404.38,432.356 403.5,431C 405.134,430.506 406.801,430.34 408.5,430.5C 408.5,429.5 408.5,428.5 408.5,427.5C 410.564,427.313 412.564,426.813 414.5,426C 415.219,423.444 416.886,422.277 419.5,422.5C 419.5,421.5 419.5,420.5 419.5,419.5C 420.833,419.5 422.167,419.5 423.5,419.5 Z"/></g>
<g><path style="opacity:1" fill="#ec8434" d="M 78.5,438.5 C 81.8473,442.445 86.1807,444.778 91.5,445.5C 91.33,446.822 91.6634,447.989 92.5,449C 97.5592,450.494 101.893,452.994 105.5,456.5C 107.684,458.585 110.351,459.585 113.5,459.5C 113.5,460.5 113.5,461.5 113.5,462.5C 97.281,455.901 82.9476,446.568 70.5,434.5C 72.5914,434.682 74.5914,434.348 76.5,433.5C 77.5896,434.391 77.5896,435.391 76.5,436.5C 77.2427,437.182 77.9094,437.849 78.5,438.5 Z"/></g>
<g><path style="opacity:0.925" fill="#eb8f44" d="M 383.5,449.5 C 373.81,455.173 363.476,459.506 352.5,462.5C 355.236,459.968 358.57,458.635 362.5,458.5C 362.5,457.5 362.5,456.5 362.5,455.5C 369.447,453.186 376.447,451.186 383.5,449.5 Z"/></g>
<g><path style="opacity:1" fill="#f27c26" d="M 182.5,476.5 C 167.379,475.119 152.379,473.119 137.5,470.5C 128.998,469.048 120.998,466.382 113.5,462.5C 113.5,461.5 113.5,460.5 113.5,459.5C 110.351,459.585 107.684,458.585 105.5,456.5C 106.93,456.579 108.264,456.246 109.5,455.5C 112.446,457.888 115.613,459.888 119,461.5C 121.908,456.026 124.075,456.359 125.5,462.5C 128.861,463.028 131.194,464.861 132.5,468C 137.5,468.333 142.5,468.667 147.5,469C 152.801,470.606 158.134,472.106 163.5,473.5C 166.328,473.31 168.994,472.643 171.5,471.5C 174.943,471.721 175.276,472.721 172.5,474.5C 175.977,475.167 179.311,475.834 182.5,476.5 Z"/></g>
<g><path style="opacity:1" fill="#f57a22" d="M 404.5,435.5 C 398.049,440.944 391.049,445.61 383.5,449.5C 376.447,451.186 369.447,453.186 362.5,455.5C 362.5,456.5 362.5,457.5 362.5,458.5C 358.57,458.635 355.236,459.968 352.5,462.5C 351.292,463.234 349.959,463.567 348.5,463.5C 336.708,465.348 325.042,467.515 313.5,470C 301.119,470.894 288.785,472.228 276.5,474C 274.256,474.05 272.589,474.883 271.5,476.5C 271.167,476.5 270.833,476.5 270.5,476.5C 244.538,478.06 218.538,478.726 192.5,478.5C 192.167,478.5 191.833,478.5 191.5,478.5C 188.5,477.833 185.5,477.167 182.5,476.5C 209.466,476.629 236.466,476.129 263.5,475C 268.206,475.113 270.873,472.946 271.5,468.5C 270.022,468.762 268.689,468.429 267.5,467.5C 267.709,466.914 268.043,466.414 268.5,466C 274.859,465.169 281.193,465.336 287.5,466.5C 285.5,467.333 283.5,468.167 281.5,469C 286.488,469.742 291.322,469.242 296,467.5C 299.214,468.329 302.214,467.662 305,465.5C 309.656,467.317 313.822,466.65 317.5,463.5C 319.62,464.891 321.953,465.558 324.5,465.5C 335.886,463.318 347.219,460.818 358.5,458C 358.167,457.667 357.833,457.333 357.5,457C 363.166,453.245 369.166,450.078 375.5,447.5C 378.103,448.562 380.77,448.728 383.5,448C 386.062,445.663 387.895,442.83 389,439.5C 390.57,440.358 392.237,441.025 394,441.5C 395.244,439.424 397.077,438.424 399.5,438.5C 399.5,437.5 399.5,436.5 399.5,435.5C 401.167,435.5 402.833,435.5 404.5,435.5 Z"/></g>
<g><path style="opacity:0.844" fill="#e38537" d="M 348.5,463.5 C 323.424,470.514 297.757,474.848 271.5,476.5C 272.589,474.883 274.256,474.05 276.5,474C 288.785,472.228 301.119,470.894 313.5,470C 325.042,467.515 336.708,465.348 348.5,463.5 Z"/></g>
<g><path style="opacity:0.592" fill="#de813b" d="M 137.5,470.5 C 152.379,473.119 167.379,475.119 182.5,476.5C 185.5,477.167 188.5,477.833 191.5,478.5C 173.027,478.111 155.027,475.444 137.5,470.5 Z"/></g>
<g><path style="opacity:0.243" fill="#d47d3d" d="M 270.5,476.5 C 244.549,479.416 218.549,480.082 192.5,478.5C 218.538,478.726 244.538,478.06 270.5,476.5 Z"/></g>
</svg>
